<svg width="24" height="24" viewBox="0 0 24 24" fill="none" xmlns="http://www.w3.org/2000/svg">
<path d="M10.2713 4.27573C9.89437 3.90809 9.2854 3.90809 8.90849 4.27573L3.28488 9.76088C2.90504 10.1314 2.90504 10.7343 3.28488 11.1047L8.90849 16.5899C9.2854 16.9575 9.89437 16.9575 10.2713 16.5899C10.6511 16.2194 10.6511 15.6165 10.2713 15.246L6.30815 11.3805H15.2135C16.5875 11.3805 17.5338 11.8347 18.1368 12.4412C18.7504 13.0584 19.0674 13.8923 19.0674 14.7426C19.0674 15.5929 18.7504 16.4267 18.1368 17.044C17.5338 17.6505 16.5875 18.1047 15.2135 18.1047C14.6848 18.1047 14.2472 18.5241 14.2472 19.0523C14.2472 19.5806 14.6848 20 15.2135 20C17.0528 20 18.5167 19.3768 19.5205 18.3671C20.5137 17.3681 21 16.047 21 14.7426C21 13.4381 20.5137 12.117 19.5205 11.118C18.5167 10.1083 17.0528 9.48515 15.2135 9.48515H6.30815L10.2713 5.61959C10.6511 5.2491 10.6511 4.64621 10.2713 4.27573Z" fill="#222222"/>
</svg>
