<svg width="24" height="24" viewBox="0 0 24 24" fill="none" xmlns="http://www.w3.org/2000/svg">
<path fill-rule="evenodd" clip-rule="evenodd" d="M4.85001 4.79998C4.85001 3.72703 5.69671 2.84998 6.75001 2.84998H17.25C18.3033 2.84998 19.15 3.72703 19.15 4.79998V19.2C19.15 20.2729 18.3033 21.15 17.25 21.15H6.75001C5.69671 21.15 4.85001 20.2729 4.85001 19.2V4.79998ZM8 14.825C8 14.3734 8.35702 14 8.80625 14H11.4313C11.8805 14 12.2375 14.3734 12.2375 14.825C12.2375 15.2766 11.8805 15.65 11.4313 15.65H8.80625C8.35702 15.65 8 15.2766 8 14.825ZM8.80625 8C8.35702 8 8 8.37338 8 8.825C8 9.27662 8.35702 9.65 8.80625 9.65H14.9312C15.3805 9.65 15.7375 9.27662 15.7375 8.825C15.7375 8.37338 15.3805 8 14.9312 8H8.80625ZM8 11.825C8 11.3734 8.35702 11 8.80625 11H14.9312C15.3805 11 15.7375 11.3734 15.7375 11.825C15.7375 12.2766 15.3805 12.65 14.9312 12.65H8.80625C8.35702 12.65 8 12.2766 8 11.825Z" fill="#222222"/>
</svg>
