<svg width="24" height="24" viewBox="0 0 24 24" fill="none" xmlns="http://www.w3.org/2000/svg">
<path d="M12.23 7.65574C9.83557 7.65574 7.90164 9.6047 7.90164 12C7.90164 14.3953 9.83557 16.3443 12.23 16.3443C13.4264 16.3443 14.5102 15.8559 15.2921 15.0704C15.6434 14.7175 15.6421 14.1466 15.2892 13.7953C14.9363 13.444 14.3654 13.4453 14.0141 13.7982C13.5558 14.2586 12.9262 14.541 12.23 14.541C10.8393 14.541 9.70492 13.4072 9.70492 12C9.70492 10.5928 10.8393 9.45902 12.23 9.45902C12.9457 9.45902 13.5913 9.75748 14.0524 10.2411C14.396 10.6015 14.9667 10.615 15.3271 10.2714C15.6875 9.92776 15.7011 9.35704 15.3575 8.99665C14.5711 8.17197 13.4603 7.65574 12.23 7.65574Z" fill="#222222"/>
<path fill-rule="evenodd" clip-rule="evenodd" d="M12 2C6.47715 2 2 6.47715 2 12C2 17.5228 6.47715 22 12 22C17.5228 22 22 17.5228 22 12C22 6.47715 17.5228 2 12 2ZM3.80328 12C3.80328 7.47308 7.47308 3.80328 12 3.80328C16.5269 3.80328 20.1967 7.47308 20.1967 12C20.1967 16.5269 16.5269 20.1967 12 20.1967C7.47308 20.1967 3.80328 16.5269 3.80328 12Z" fill="#222222"/>
</svg>
