<svg width="24" height="24" viewBox="0 0 24 24" fill="none" xmlns="http://www.w3.org/2000/svg">
<path d="M4.30772 19.5C3.80901 19.5 3.38305 19.3234 3.02985 18.9702C2.67663 18.617 2.50002 18.191 2.50002 17.6923V6.30773C2.50002 5.80901 2.67663 5.38306 3.02985 5.02986C3.38305 4.67664 3.80901 4.50003 4.30772 4.50003H19.6923C20.191 4.50003 20.617 4.67664 20.9701 5.02986C21.3234 5.38306 21.5 5.80901 21.5 6.30773V17.6923C21.5 18.191 21.3234 18.617 20.9701 18.9702C20.617 19.3234 20.191 19.5 19.6923 19.5H4.30772ZM9.49997 18H19.6923C19.782 18 19.8558 17.9712 19.9135 17.9135C19.9712 17.8558 20 17.782 20 17.6923V6.30773C20 6.21798 19.9712 6.14426 19.9135 6.08656C19.8558 6.02886 19.782 6.00001 19.6923 6.00001H9.49997V18ZM8 18V6.00001H4.30772C4.21797 6.00001 4.14425 6.02886 4.08655 6.08656C4.02885 6.14426 4 6.21798 4 6.30773V17.6923C4 17.782 4.02885 17.8558 4.08655 17.9135C4.14425 17.9712 4.21797 18 4.30772 18H8Z" fill="#222222"/>
</svg>
