<svg width="24" height="24" viewBox="0 0 24 24" fill="none" xmlns="http://www.w3.org/2000/svg">
<path fill-rule="evenodd" clip-rule="evenodd" d="M12 3C16.9724 3 21 7.02765 21 12C21 16.9724 16.9724 21 12 21C10.3239 21 8.75234 20.5368 7.41124 19.7349L4.33758 20.5017C4.10175 20.5606 3.85234 20.4914 3.68047 20.3195C3.50859 20.1477 3.43944 19.8982 3.49828 19.6624L4.26531 16.588C3.46391 15.2429 3 13.6775 3 12C3 7.02765 7.02765 3 12 3ZM10.9612 12C10.9612 12.5735 11.4261 13.0385 11.9996 13.0385C12.5732 13.0385 13.0381 12.5735 13.0381 12C13.0381 11.4265 12.5732 10.9615 11.9996 10.9615C11.4261 10.9615 10.9612 11.4265 10.9612 12ZM16.1539 13.0385C15.5804 13.0385 15.1155 12.5735 15.1155 12C15.1155 11.4265 15.5804 10.9615 16.1539 10.9615C16.7274 10.9615 17.1924 11.4265 17.1924 12C17.1924 12.5735 16.7274 13.0385 16.1539 13.0385ZM6.80769 12C6.80769 12.5735 7.27263 13.0385 7.84615 13.0385C8.41968 13.0385 8.88461 12.5735 8.88461 12C8.88461 11.4265 8.41968 10.9615 7.84615 10.9615C7.27263 10.9615 6.80769 11.4265 6.80769 12Z" fill="#222222"/>
</svg>
