<svg width="24" height="24" viewBox="0 0 24 24" fill="none" xmlns="http://www.w3.org/2000/svg">
<path d="M12 6.19672C10.4973 6.19672 9.14286 7.32851 9.14286 8.88525C9.14286 9.37415 9.53985 9.77049 10.0296 9.77049C10.5193 9.77049 10.9163 9.37415 10.9163 8.88525C10.9163 8.44692 11.3297 7.96721 12 7.96721C12.6703 7.96721 13.0837 8.44692 13.0837 8.88525C13.0837 9.1292 12.9691 9.36766 12.7486 9.54709C12.4529 9.78772 12.0572 10.1119 11.7407 10.4988C11.4192 10.8919 11.1133 11.4284 11.1133 12.0994V12.4918C11.1133 12.9807 11.5103 13.377 12 13.377C12.4897 13.377 12.8867 12.9807 12.8867 12.4918V12.0994C12.8867 11.9908 12.933 11.8404 13.1144 11.6187C13.301 11.3905 13.5595 11.1713 13.8691 10.9194C14.4601 10.4385 14.8571 9.71401 14.8571 8.88525C14.8571 7.32851 13.5027 6.19672 12 6.19672Z" fill="#222222"/>
<path d="M12 13.5738C11.3743 13.5738 10.867 14.0802 10.867 14.7049C10.867 15.3296 11.3743 15.8361 12 15.8361C12.6257 15.8361 13.133 15.3296 13.133 14.7049C13.133 14.0802 12.6257 13.5738 12 13.5738Z" fill="#222222"/>
<path fill-rule="evenodd" clip-rule="evenodd" d="M4.11823 3C2.94825 3 2 3.94767 2 5.11641V15.9452C2 17.1139 2.94825 18.0616 4.11823 18.0616H9.56469L11.0337 20.459C11.4756 21.1803 12.5244 21.1803 12.9663 20.459L14.4353 18.0616H19.8818C21.0518 18.0616 22 17.1139 22 15.9452V5.11641C22 3.94767 21.0518 3 19.8818 3H4.11823ZM3.7734 5.11641C3.7734 4.92593 3.9279 4.77173 4.11823 4.77173H19.8818C20.0721 4.77173 20.2266 4.92593 20.2266 5.11641V15.9452C20.2266 16.1357 20.0721 16.2899 19.8818 16.2899H13.4416L12 18.6426L10.5584 16.2899H4.11823C3.9279 16.2899 3.7734 16.1357 3.7734 15.9452V5.11641Z" fill="#222222"/>
</svg>
