<svg width="24" height="24" viewBox="0 0 24 24" fill="none" xmlns="http://www.w3.org/2000/svg">
<path fill-rule="evenodd" clip-rule="evenodd" d="M5.752 2C5.31459 2 4.96 2.35629 4.96 2.79579V2.88421H2.892C1.84708 2.88421 1 3.73535 1 4.78528V17.1643C1 18.2142 1.84708 19.0653 2.892 19.0653H11.0913C10.9663 18.5555 10.9 18.0224 10.9 17.4738H2.892C2.7219 17.4738 2.584 17.3352 2.584 17.1643V8.89688H15.52V11.1457C16.0246 10.9865 16.5553 10.8865 17.104 10.8538V4.78528C17.104 3.73535 16.2569 2.88421 15.212 2.88421H13.3395V2.79579C13.3395 2.35629 12.9849 2 12.5475 2C12.1101 2 11.7555 2.35629 11.7555 2.79579V2.88421H6.544V2.79579C6.544 2.35629 6.18941 2 5.752 2ZM12.7609 12.8582C13.0006 12.6097 13.2596 12.38 13.5353 12.1715C13.5669 12.073 13.584 11.968 13.584 11.859C13.584 11.2974 13.1309 10.8421 12.572 10.8421C12.0131 10.8421 11.56 11.2974 11.56 11.859C11.56 12.4206 12.0131 12.8758 12.572 12.8758C12.6365 12.8758 12.6997 12.8698 12.7609 12.8582ZM2.584 4.78528C2.584 4.61436 2.7219 4.4758 2.892 4.4758H4.96V5.00633C4.96 5.44584 5.31459 5.80212 5.752 5.80212C6.18941 5.80212 6.544 5.44584 6.544 5.00633V4.4758H11.7555V5.00633C11.7555 5.44584 12.1101 5.80212 12.5475 5.80212C12.9849 5.80212 13.3395 5.44584 13.3395 5.00633V4.4758H15.212C15.3821 4.4758 15.52 4.61436 15.52 4.78528V7.30529H2.584V4.78528ZM9.05199 10.8421C8.49308 10.8421 8.04 11.2974 8.04 11.859C8.04 12.4206 8.49308 12.8758 9.05199 12.8758C9.61091 12.8758 10.064 12.4206 10.064 11.859C10.064 11.2974 9.61091 10.8421 9.05199 10.8421ZM5.532 10.8423C4.97309 10.8423 4.52 11.2975 4.52 11.8591C4.52 12.4207 4.97309 12.876 5.532 12.876C6.09091 12.876 6.544 12.4207 6.544 11.8591C6.544 11.2975 6.09091 10.8423 5.532 10.8423ZM5.532 13.9369C4.97309 13.9369 4.52 14.3922 4.52 14.9537C4.52 15.5153 4.97309 15.9706 5.532 15.9706C6.09091 15.9706 6.544 15.5153 6.544 14.9537C6.544 14.3922 6.09091 13.9369 5.532 13.9369ZM9.05199 13.9369C8.49308 13.9369 8.04 14.3922 8.04 14.9537C8.04 15.5153 8.49308 15.9706 9.05199 15.9706C9.61091 15.9706 10.064 15.5153 10.064 14.9537C10.064 14.3922 9.61091 13.9369 9.05199 13.9369ZM21.515 17.4737C21.515 19.7017 19.7174 21.5079 17.5 21.5079C15.2826 21.5079 13.485 19.7017 13.485 17.4737C13.485 15.2456 15.2826 13.4394 17.5 13.4394C19.7174 13.4394 21.515 15.2456 21.515 17.4737ZM23 17.4737C23 20.5258 20.5376 23 17.5 23C14.4624 23 12 20.5258 12 17.4737C12 14.4216 14.4624 11.9473 17.5 11.9473C20.5376 11.9473 23 14.4216 23 17.4737ZM17.5 14.9868C17.1962 14.9868 16.95 15.2343 16.95 15.5395V17.75C16.95 17.8633 16.9839 17.9686 17.0421 18.0562C17.1407 18.2048 17.309 18.3027 17.5 18.3027H19.7C20.0038 18.3027 20.25 18.0552 20.25 17.75C20.25 17.4448 20.0038 17.1974 19.7 17.1974H18.05V15.5395C18.05 15.2343 17.8037 14.9868 17.5 14.9868Z" fill="#222222"/>
</svg>
