<svg width="24" height="24" viewBox="0 0 24 24" fill="none" xmlns="http://www.w3.org/2000/svg">
<path fill-rule="evenodd" clip-rule="evenodd" d="M21.645 6.18752C21.3749 5.97972 21.0115 5.94135 20.7041 6.08882L14.9496 8.84949L12.674 6.30214C12.5025 6.1102 12.2576 6.00001 12 6.00001C11.7424 6.00001 11.4975 6.1102 11.326 6.30214L9.05037 8.84949L3.29593 6.08882C2.98854 5.94135 2.62506 5.97972 2.35499 6.18752C2.08529 6.39504 1.9545 6.73608 2.01427 7.07063L3.83313 17.2509C3.91028 17.6827 4.28428 18 4.72453 18H19.2755C19.7157 18 20.0897 17.6827 20.1669 17.2509L21.9857 7.07063C22.0455 6.73608 21.9147 6.39504 21.645 6.18752ZM9.9457 10.5717L12 8.27208L14.0543 10.5717C14.3223 10.8717 14.7554 10.9592 15.1186 10.785L19.8909 8.49548L18.5179 16.1803H5.48209L4.10908 8.49548L8.88144 10.785C9.24455 10.9592 9.67773 10.8717 9.9457 10.5717Z" fill="#222222"/>
</svg>
