<svg width="24" height="24" viewBox="0 0 24 24" fill="none" xmlns="http://www.w3.org/2000/svg">
<path fill-rule="evenodd" clip-rule="evenodd" d="M5 3C3.89543 3 3 3.89543 3 5V19C3 20.1046 3.89543 21 5 21H19C20.1046 21 21 20.1046 21 19V5C21 3.89543 20.1046 3 19 3H5ZM5.646 9.52539V14.4746H6.80811V12.9229H7.63525C8.77002 12.9229 9.46729 12.2529 9.46729 11.2275C9.46729 10.2227 8.78369 9.52539 7.66943 9.52539H5.646ZM7.42334 12H6.80811V10.4688H7.42334C7.97021 10.4688 8.26416 10.7627 8.26416 11.2275C8.26416 11.6924 7.97021 12 7.42334 12ZM11.8667 14.4746H10.0552V9.52539H11.8667C13.3774 9.52539 14.3071 10.4551 14.3071 12C14.3071 13.5449 13.3774 14.4746 11.8667 14.4746ZM11.2173 13.4766H11.8257C12.6733 13.4766 13.1382 13.0732 13.1382 12C13.1382 10.9268 12.6733 10.5166 11.812 10.5166H11.2173V13.4766ZM18.354 9.52539H14.9976V14.4746H16.1597V12.4717H18.1353V11.5215H16.1597V10.4756H18.354V9.52539Z" fill="#222222"/>
</svg>
