<svg width="24" height="24" viewBox="0 0 24 24" fill="none" xmlns="http://www.w3.org/2000/svg">
<path fill-rule="evenodd" clip-rule="evenodd" d="M15.75 3.89998C15.2529 3.89998 14.85 3.49703 14.85 2.99998C14.85 2.50292 15.2529 2.09998 15.75 2.09998H21C21.4971 2.09998 21.9 2.50292 21.9 2.99998V8.24998C21.9 8.74703 21.4971 9.14998 21 9.14998C20.5029 9.14998 20.1 8.74703 20.1 8.24998V5.17277L8.13639 17.1364C7.78492 17.4878 7.21507 17.4878 6.8636 17.1364C6.51213 16.7849 6.51213 16.2151 6.8636 15.8636L18.8272 3.89998H15.75ZM3.02261 6.02259C3.61335 5.43185 4.41457 5.09998 5.25 5.09998H13.5C13.9971 5.09998 14.4 5.50292 14.4 5.99998C14.4 6.49703 13.9971 6.89998 13.5 6.89998H5.25C4.89196 6.89998 4.54858 7.04221 4.2954 7.29538C4.04223 7.54856 3.9 7.89193 3.9 8.24998V18.75C3.9 19.108 4.04223 19.4514 4.2954 19.7046C4.54858 19.9577 4.89196 20.1 5.25 20.1H15.75C16.108 20.1 16.4514 19.9577 16.7046 19.7046C16.9578 19.4514 17.1 19.108 17.1 18.75V10.5C17.1 10.0029 17.5029 9.59998 18 9.59998C18.4971 9.59998 18.9 10.0029 18.9 10.5V18.75C18.9 19.5854 18.5681 20.3866 17.9774 20.9774C17.3866 21.5681 16.5854 21.9 15.75 21.9H5.25C4.41457 21.9 3.61335 21.5681 3.02261 20.9774C2.43187 20.3866 2.1 19.5854 2.1 18.75V8.24998C2.1 7.41454 2.43187 6.61333 3.02261 6.02259Z" fill="#222222"/>
</svg>
