<svg width="24" height="24" viewBox="0 0 24 24" fill="none" xmlns="http://www.w3.org/2000/svg">
<path fill-rule="evenodd" clip-rule="evenodd" d="M9.04889 3.63983C6.2454 3.63983 3.96716 5.86878 3.96716 8.62513C3.96716 11.3815 6.2454 13.6104 9.04889 13.6104C11.8524 13.6104 14.1306 11.3815 14.1306 8.62513C14.1306 5.86878 11.8524 3.63983 9.04889 3.63983ZM14.7714 3.63983C14.2451 3.63983 13.8028 4.0456 13.8028 4.56503C13.8028 5.08446 14.2451 5.49023 14.7714 5.49023C16.6155 5.49023 18.0947 6.90223 18.0947 8.62513C18.0947 10.348 16.6155 11.76 14.7714 11.76C14.2451 11.76 13.8028 12.1658 13.8028 12.6852C13.8028 13.2047 14.2451 13.6104 14.7714 13.6104C17.6681 13.6104 20.032 11.3869 20.032 8.62513C20.032 5.86337 17.6681 3.63983 14.7714 3.63983ZM5.77035 8.62513C5.77035 6.85477 7.23513 5.4141 9.04889 5.4141C10.8626 5.4141 12.3274 6.85477 12.3274 8.62513C12.3274 10.3955 10.8626 11.8362 9.04889 11.8362C7.23513 11.8362 5.77035 10.3955 5.77035 8.62513ZM9.04889 14.2469C4.81797 14.2469 2.62411 17.6015 2.04679 19.2541C1.89548 19.6873 2.12317 20.1617 2.55606 20.3135C2.9891 20.4653 3.46266 20.2366 3.61403 19.8033C4.07278 18.49 5.8169 15.9098 9.04889 15.9098C12.2809 15.9098 14.025 18.49 14.4837 19.8033C14.6351 20.2366 15.1087 20.4653 15.5417 20.3135C15.9746 20.1617 16.2023 19.6873 16.051 19.2541C15.4737 17.6015 13.2798 14.2469 9.04889 14.2469ZM15.1959 14.2469C14.7138 14.2469 14.2943 14.6041 14.2943 15.0783C14.2943 15.5526 14.7138 15.9098 15.1959 15.9098C16.6645 15.9098 17.7958 16.5177 18.6415 17.3251C19.5007 18.1453 20.0249 19.1379 20.2352 19.7721C20.3833 20.2189 20.8897 20.4519 21.3522 20.3263C21.8195 20.1995 22.1104 19.7407 21.9595 19.2853C21.6779 18.436 21.0219 17.2035 19.9386 16.1694C18.8419 15.1225 17.2684 14.2469 15.1959 14.2469Z" fill="#222222"/>
</svg>
