<svg width="24" height="24" viewBox="0 0 24 24" fill="none" xmlns="http://www.w3.org/2000/svg">
<path d="M12 6.64679C11.5104 6.64679 11.1 7.0254 11.1 7.50869V13.6785C11.1 14.1617 11.5104 14.5404 12 14.5404C12.4896 14.5404 12.9 14.1617 12.9 13.6785V7.50869C12.9 7.0254 12.4896 6.64679 12 6.64679Z" fill="#222222"/>
<path d="M15.5 8.54518C15.0104 8.54518 14.6 8.92379 14.6 9.40708V13.7066C14.6 14.1899 15.0104 14.5685 15.5 14.5685C15.9896 14.5685 16.4 14.1899 16.4 13.7066V9.40708C16.4 8.92379 15.9896 8.54518 15.5 8.54518Z" fill="#222222"/>
<path d="M8.50001 10.4436C8.01042 10.4436 7.60001 10.8222 7.60001 11.3055V13.6785C7.60001 14.1617 8.01042 14.5404 8.50001 14.5404C8.9896 14.5404 9.40001 14.1617 9.40001 13.6785V11.3055C9.40001 10.8222 8.9896 10.4436 8.50001 10.4436Z" fill="#222222"/>
<path fill-rule="evenodd" clip-rule="evenodd" d="M2.75001 2.85001C2.26042 2.85001 1.85001 3.22862 1.85001 3.7119C1.85001 4.19519 2.26042 4.5738 2.75001 4.5738L2.85001 4.5738V14.3853C2.85001 16.0509 4.27017 17.3879 6.00536 17.3879H9.72398L7.194 19.6593C6.82948 19.9866 6.81286 20.5364 7.15844 20.8832C7.49967 21.2256 8.06511 21.2402 8.42515 20.9169L12 17.7075L15.575 20.9169C15.935 21.2402 16.5004 21.2256 16.8417 20.8832C17.1873 20.5363 17.1706 19.9865 16.8061 19.6593L14.2761 17.3879H17.9947C19.7298 17.3879 21.15 16.0509 21.15 14.3853V4.5738H21.25C21.7396 4.5738 22.15 4.19519 22.15 3.7119C22.15 3.22862 21.7396 2.85001 21.25 2.85001H2.75001ZM4.65001 14.3853L4.65001 4.5738L19.35 4.5738V14.3853C19.35 15.0843 18.7507 15.6641 17.9947 15.6641L6.00536 15.6641C5.24935 15.6641 4.65001 15.0843 4.65001 14.3853Z" fill="#222222"/>
</svg>
