<svg width="24" height="24" viewBox="0 0 24 24" fill="none" xmlns="http://www.w3.org/2000/svg">
<path d="M12.9802 2.04817C10.6778 1.8214 8.36795 2.39998 6.4443 3.68532C4.52065 4.97066 3.10219 6.88323 2.4306 9.09716C1.75901 11.3111 1.87585 13.6894 2.76121 15.8268C3.64657 17.9643 5.24566 19.7286 7.28604 20.8192C9.32641 21.9098 11.6818 22.2592 13.9509 21.8078C16.22 21.3565 18.2624 20.1323 19.7301 18.3439C21.1978 16.5555 22 14.3135 22 12C22 11.4979 21.593 11.0909 21.0909 11.0909C20.5888 11.0909 20.1818 11.4979 20.1818 12C20.1818 13.8929 19.5255 15.7272 18.3246 17.1905C17.1238 18.6537 15.4527 19.6553 13.5962 20.0246C11.7397 20.3939 9.81251 20.108 8.14312 19.2157C6.47373 18.3234 5.16537 16.8799 4.44099 15.131C3.7166 13.3822 3.62101 11.4363 4.17049 9.62495C4.71997 7.81355 5.88053 6.24872 7.45443 5.19708C9.02832 4.14544 10.9182 3.67206 12.802 3.85759C14.6858 4.04313 16.4469 4.87611 17.7854 6.21459C18.1404 6.56961 18.716 6.56961 19.0711 6.21459C19.4261 5.85957 19.4261 5.28396 19.0711 4.92894C17.4351 3.29302 15.2826 2.27494 12.9802 2.04817Z" fill="#222222"/>
<path d="M21.2204 7.43989C20.8985 7.05458 20.3252 7.00316 19.9399 7.32506L11.4301 14.4342L8.06141 11.414C7.68758 11.0789 7.11283 11.1102 6.77767 11.4841C6.44251 11.8579 6.47385 12.4326 6.84768 12.7678L10.8022 16.3133C11.1385 16.6148 11.6453 16.6237 11.9919 16.334L21.1056 8.7204C21.4909 8.3985 21.5423 7.8252 21.2204 7.43989Z" fill="#222222"/>
</svg>
