<svg width="24" height="24" viewBox="0 0 24 24" fill="none" xmlns="http://www.w3.org/2000/svg">
<path d="M7.05492 7.20331C6.59064 7.20331 6.21426 7.57968 6.21426 8.04397C6.21426 8.50825 6.59064 8.88463 7.05492 8.88463H12C12.4642 8.88463 12.8406 8.50825 12.8406 8.04397C12.8406 7.57968 12.4642 7.20331 12 7.20331H7.05492Z" fill="#222222"/>
<path d="M7.05492 9.67584C6.59064 9.67584 6.21426 10.0522 6.21426 10.5165C6.21426 10.9808 6.59064 11.3572 7.05492 11.3572H13.978C14.4423 11.3572 14.8186 10.9808 14.8186 10.5165C14.8186 10.0522 14.4423 9.67584 13.978 9.67584H7.05492Z" fill="#222222"/>
<path d="M6.21426 12.989C6.21426 12.5247 6.59064 12.1484 7.05492 12.1484H12C12.4642 12.1484 12.8406 12.5247 12.8406 12.989C12.8406 13.4533 12.4642 13.8297 12 13.8297H7.05492C6.59064 13.8297 6.21426 13.4533 6.21426 12.989Z" fill="#222222"/>
<path fill-rule="evenodd" clip-rule="evenodd" d="M3 10.6348C3 6.42025 6.38547 3 10.5662 3C14.7469 3 18.1324 6.42025 18.1324 10.6348C18.1324 12.4032 17.5363 14.0319 16.5357 15.3265L20.7209 19.4115C21.0844 19.7663 21.0941 20.3505 20.7426 20.7174C20.39 21.0854 19.8076 21.0953 19.4428 20.7393L15.2412 16.6383C13.9545 17.6599 12.3307 18.2696 10.5662 18.2696C6.38547 18.2696 3 14.8494 3 10.6348ZM10.5662 4.84921C7.40369 4.84921 4.83634 7.43749 4.83634 10.6348C4.83634 13.8321 7.40369 16.4204 10.5662 16.4204C13.7287 16.4204 16.296 13.8321 16.296 10.6348C16.296 7.43749 13.7287 4.84921 10.5662 4.84921Z" fill="#222222"/>
</svg>
