<svg width="24" height="24" viewBox="0 0 24 24" fill="none" xmlns="http://www.w3.org/2000/svg">
<path d="M15.9755 7.23395C15.6478 6.92202 15.1188 6.92202 14.7911 7.23395L11.6068 10.2651C11.276 10.58 11.276 11.0927 11.6068 11.4076C11.9345 11.7195 12.4635 11.7195 12.7912 11.4076L15.9755 8.37643C16.3063 8.06157 16.3063 7.54881 15.9755 7.23395Z" fill="#222222"/>
<path d="M20.7519 7.23395C20.5779 7.06827 20.347 6.99059 20.1197 7.00091C19.919 7.01001 19.7211 7.0877 19.5675 7.23395L12.199 14.2482L8.8109 11.0229C8.4832 10.711 7.95414 10.711 7.62645 11.0229C7.29569 11.3378 7.29569 11.8505 7.62645 12.1654L8.6185 13.1098L7.4226 14.2482L4.43252 11.4018C4.10483 11.0899 3.57576 11.0899 3.24807 11.4018C2.91731 11.7167 2.91731 12.2294 3.24807 12.5443L6.49322 15.6334C6.74073 15.8687 7.0751 16 7.4226 16C7.7702 16 8.10491 15.8683 8.35236 15.6331L9.81081 14.2447L11.2696 15.6334C11.5171 15.8687 11.8515 16 12.199 16C12.5466 16 12.8813 15.8683 13.1288 15.6331L20.7519 8.37643C21.0827 8.06157 21.0827 7.54881 20.7519 7.23395Z" fill="#222222"/>
</svg>
