<svg width="24" height="24" viewBox="0 0 24 24" fill="none" xmlns="http://www.w3.org/2000/svg">
<path fill-rule="evenodd" clip-rule="evenodd" d="M12 8.7541C10.2074 8.7541 8.75413 10.2073 8.75413 12C8.75413 13.7927 10.2074 15.2459 12 15.2459C13.7926 15.2459 15.2459 13.7927 15.2459 12C15.2459 10.2073 13.7926 8.7541 12 8.7541ZM10.3771 12C10.3771 11.1037 11.1037 10.377 12 10.377C12.8963 10.377 13.6229 11.1037 13.6229 12C13.6229 12.8963 12.8963 13.623 12 13.623C11.1037 13.623 10.3771 12.8963 10.3771 12Z" fill="#222222"/>
<path fill-rule="evenodd" clip-rule="evenodd" d="M10.8855 3C9.8674 3 8.99681 3.71492 8.87017 4.6827L8.76816 5.46228C8.39303 5.63209 8.03484 5.83056 7.69667 6.05473L6.96701 5.76067C6.02246 5.37999 4.91957 5.72468 4.40638 6.57377L3.26737 8.4583C2.76208 9.29432 2.99201 10.3507 3.79639 10.9323L4.46316 11.4144C4.44696 11.6076 4.43871 11.8029 4.43871 12C4.43871 12.1971 4.44696 12.3924 4.46316 12.5856L3.79639 13.0678C2.99201 13.6494 2.76208 14.7058 3.26737 15.5418L4.40638 17.4263C4.91957 18.2754 6.02246 18.6201 6.96701 18.2394L7.69673 17.9453C8.03488 18.1695 8.39306 18.3679 8.76816 18.5377L8.87017 19.3173C8.99681 20.2851 9.8674 21 10.8855 21H13.1145C14.1326 21 15.0032 20.2851 15.1299 19.3173L15.2319 18.5377C15.607 18.3679 15.9651 18.1695 16.3033 17.9453L17.033 18.2394C17.9775 18.6201 19.0804 18.2754 19.5936 17.4263L20.7326 15.5418C21.2379 14.7058 21.008 13.6494 20.2036 13.0678L19.5369 12.5857C19.5531 12.3924 19.5613 12.1971 19.5613 12C19.5613 11.8029 19.5531 11.6076 19.5369 11.4144L20.2036 10.9323C21.008 10.3507 21.2379 9.29432 20.7326 8.4583L19.5936 6.57377C19.0804 5.72468 17.9775 5.38 17.033 5.76067L16.3034 6.05472C15.9652 5.83055 15.607 5.63209 15.2319 5.46228L15.1299 4.6827C15.0032 3.71492 14.1326 3 13.1145 3H10.8855ZM10.5645 4.88313C10.5831 4.74151 10.7148 4.62295 10.8855 4.62295H13.1145C13.2853 4.62295 13.417 4.74151 13.4355 4.88313L13.6545 6.55648L14.4386 6.90125C14.7687 7.04638 15.0828 7.22031 15.3772 7.41993L16.0904 7.90343L17.6997 7.25482C17.8567 7.19156 18.0342 7.25189 18.1131 7.38244L19.2521 9.26697C19.3269 9.39071 19.296 9.54928 19.1697 9.64062L17.7509 10.6665L17.8289 11.4777C17.8454 11.6493 17.8539 11.8235 17.8539 12C17.8539 12.1765 17.8454 12.3507 17.8289 12.5224L17.7509 13.3336L19.1697 14.3594C19.296 14.4508 19.3269 14.6094 19.2521 14.7331L18.1131 16.6176C18.0342 16.7482 17.8567 16.8085 17.6997 16.7452L16.0903 16.0966L15.3772 16.5801C15.0827 16.7797 14.7687 16.9536 14.4386 17.0987L13.6545 17.4435L13.4355 19.1169C13.417 19.2585 13.2853 19.377 13.1145 19.377H10.8855C10.7148 19.377 10.5831 19.2585 10.5645 19.1169L10.3456 17.4435L9.56141 17.0987C9.23135 16.9536 8.91731 16.7797 8.62287 16.5801L7.90971 16.0966L6.30026 16.7452C6.1433 16.8085 5.96578 16.7482 5.88687 16.6176L4.74786 14.7331C4.67307 14.6094 4.70402 14.4508 4.83034 14.3594L6.24911 13.3335L6.17112 12.5223C6.15462 12.3507 6.14615 12.1765 6.14615 12C6.14615 11.8235 6.15461 11.6493 6.17111 11.4777L6.2491 10.6665L4.83034 9.64062C4.70402 9.54928 4.67307 9.39071 4.74786 9.26697L5.88687 7.38244C5.96577 7.25189 6.1433 7.19156 6.30026 7.25482L7.90965 7.90344L8.62282 7.41994C8.91727 7.22031 9.23133 7.04638 9.56141 6.90125L10.3456 6.55648L10.5645 4.88313Z" fill="#222222"/>
</svg>
