<svg width="24" height="24" viewBox="0 0 24 24" fill="none" xmlns="http://www.w3.org/2000/svg">
<path fill-rule="evenodd" clip-rule="evenodd" d="M5.7385 4C5.29758 4 4.94322 4.36061 4.94322 4.80164V12.8437C3.81774 13.188 3 14.2433 3 15.4901C3 16.737 3.81774 17.7922 4.94322 18.1365V19.1984C4.94322 19.6394 5.29758 20 5.7385 20C6.17943 20 6.53379 19.6394 6.53379 19.1984V18.1365C7.65927 17.7922 8.47701 16.737 8.47701 15.4901C8.47701 14.2433 7.65927 13.188 6.53379 12.8437V4.80164C6.53379 4.36061 6.17943 4 5.7385 4ZM4.59056 15.4901C4.59056 14.8469 5.10622 14.3286 5.7385 14.3286C6.37079 14.3286 6.88645 14.8469 6.88645 15.4901C6.88645 16.1333 6.37079 16.6517 5.7385 16.6517C5.10622 16.6517 4.59056 16.1333 4.59056 15.4901Z" fill="#222222"/>
<path fill-rule="evenodd" clip-rule="evenodd" d="M11.9999 4C11.559 4 11.2047 4.36061 11.2047 4.80164V5.86351C10.0792 6.20784 9.2615 7.26307 9.2615 8.50988C9.2615 9.7567 10.0792 10.8119 11.2047 11.1563V19.1984C11.2047 19.6394 11.559 20 11.9999 20C12.4409 20 12.7952 19.6394 12.7952 19.1984V11.1563C13.9207 10.812 14.7385 9.75675 14.7385 8.50988C14.7385 7.26302 13.9207 6.20776 12.7952 5.86347V4.80164C12.7952 4.36061 12.4409 4 11.9999 4ZM10.8521 8.50988C10.8521 7.86667 11.3677 7.34833 12 7.34833C12.6323 7.34833 13.1479 7.86667 13.1479 8.50988C13.1479 9.1531 12.6323 9.67144 12 9.67144C11.3677 9.67144 10.8521 9.1531 10.8521 8.50988Z" fill="#222222"/>
<path fill-rule="evenodd" clip-rule="evenodd" d="M18.2616 4C17.8207 4 17.4663 4.36061 17.4663 4.80164V12.8437C16.3408 13.188 15.523 14.2432 15.523 15.4901C15.523 16.737 16.3408 17.7923 17.4663 18.1365V19.1984C17.4663 19.6394 17.8207 20 18.2616 20C18.7025 20 19.0569 19.6394 19.0569 19.1984V18.1365C20.1823 17.7921 21 16.7369 21 15.4901C21 14.2433 20.1823 13.1881 19.0569 12.8437V4.80164C19.0569 4.36061 18.7025 4 18.2616 4ZM17.1136 15.4901C17.1136 14.8469 17.6292 14.3286 18.2615 14.3286C18.8938 14.3286 19.4094 14.8469 19.4094 15.4901C19.4094 16.1333 18.8938 16.6517 18.2615 16.6517C17.6292 16.6517 17.1136 16.1333 17.1136 15.4901Z" fill="#222222"/>
</svg>
