<svg width="24" height="24" viewBox="0 0 24 24" fill="none" xmlns="http://www.w3.org/2000/svg">
<path fill-rule="evenodd" clip-rule="evenodd" d="M5.11477 3C3.9481 3 3.00002 3.88893 3.00002 4.98818V8.97293C3.00002 9.66503 3.38277 10.3068 4.0097 10.6681L8.50319 13.2572C8.75114 13.4001 8.90165 13.6533 8.90165 13.9254V19.9344C8.90165 20.7772 9.89095 21.2824 10.6418 20.831L14.1227 18.7389C14.7302 18.3737 15.0984 17.7424 15.0984 17.0638V13.9254C15.0984 13.6533 15.2489 13.4001 15.4968 13.2572L19.9903 10.6681C20.6173 10.3068 21 9.66503 21 8.97293V4.98818C21 3.88893 20.0519 3 18.8853 3H5.11477ZM4.77051 4.98818C4.77051 4.81145 4.92336 4.666 5.11477 4.666H18.8853C19.0767 4.666 19.2295 4.81145 19.2295 4.98818V8.97293C19.2295 9.08438 19.1679 9.18842 19.0657 9.24728L14.5723 11.8364C13.7995 12.2817 13.3279 13.0726 13.3279 13.9254V17.0638C13.3279 17.173 13.2686 17.2754 13.1697 17.3348L10.6721 18.836V13.9254C10.6721 13.0726 10.2005 12.2817 9.42776 11.8364L4.93428 9.24728C4.83214 9.18842 4.77051 9.08438 4.77051 8.97293V4.98818Z" fill="#222222"/>
</svg>
