<svg width="24" height="24" viewBox="0 0 24 24" fill="none" xmlns="http://www.w3.org/2000/svg">
<path fill-rule="evenodd" clip-rule="evenodd" d="M14.5931 4.9951C14.1566 2.82016 11.2956 2.26688 10.0744 4.11962L6.21481 9.97505L4.49029 9.97505C3.66769 9.97505 3 10.6398 3 11.4609V19.5141C3 20.3352 3.66769 21 4.49029 21L16.2595 21C18.0214 21 19.5334 19.7479 19.8558 18.0206L20.9587 12.1122C21.2341 10.6367 20.0979 9.27528 18.5936 9.27528H14.2132L14.6662 6.56986C14.7392 6.13369 14.7321 5.68792 14.6451 5.2543L14.5931 4.9951ZM11.4943 5.05047C11.8817 4.46277 12.7887 4.63928 12.9268 5.32762L12.9788 5.58683C13.0254 5.81885 13.0292 6.05736 12.9901 6.29074L12.398 9.82717C12.2977 10.4259 12.7609 10.9699 13.3685 10.9699H18.5936C19.0361 10.9699 19.3688 11.37 19.2881 11.8021L18.1852 17.7105C18.0127 18.6346 17.2035 19.3054 16.2595 19.3054H7.74167V10.7437L11.4943 5.05047ZM4.69927 19.3054V11.6697H5.80837V19.3054H4.69927Z" fill="#222222"/>
</svg>
