<svg width="24" height="24" viewBox="0 0 24 24" fill="none" xmlns="http://www.w3.org/2000/svg">
<path fill-rule="evenodd" clip-rule="evenodd" d="M21.2569 13.8113C22.1207 13.2732 23 12.7255 23 12C23 11.2805 22.1405 10.7482 21.2855 10.2188C20.5858 9.7855 19.8892 9.35414 19.6692 8.8236C19.447 8.28776 19.6329 7.47182 19.8185 6.65767C20.0412 5.68061 20.2633 4.70613 19.7786 4.22143C19.2896 3.73249 18.2899 3.95741 17.2999 4.18013C16.4908 4.36217 15.6882 4.54274 15.1764 4.3308C14.6695 4.12088 14.2435 3.437 13.8113 2.7431C13.2732 1.87932 12.7255 1 12 1C11.2805 1 10.7482 1.85954 10.2188 2.71453C9.78551 3.41417 9.35415 4.11076 8.8236 4.3308C8.28776 4.55303 7.47182 4.36707 6.65767 4.18151C5.68061 3.95883 4.70613 3.73673 4.22143 4.22143C3.73676 4.70611 3.9588 5.68026 4.18147 6.65717C4.36704 7.47131 4.55305 8.28736 4.3308 8.8236C4.12088 9.33049 3.437 9.75647 2.7431 10.1887C1.87932 10.7268 1 11.2745 1 12C1 12.7195 1.85954 13.2518 2.71453 13.7812C3.41417 14.2145 4.11076 14.6459 4.3308 15.1764C4.55303 15.7122 4.36707 16.5282 4.18151 17.3423C3.95883 18.3194 3.73673 19.2939 4.22143 19.7786C4.71038 20.2675 5.71012 20.0426 6.70007 19.8199C7.50922 19.6378 8.31183 19.4573 8.8236 19.6692C9.33049 19.8791 9.75648 20.563 10.1887 21.2569C10.7268 22.1207 11.2745 23 12 23C12.7256 23 13.2734 22.1207 13.8115 21.2569C14.2437 20.5632 14.6696 19.8794 15.1764 19.6692C15.7122 19.447 16.5282 19.6329 17.3423 19.8185C18.3194 20.0412 19.2939 20.2633 19.7786 19.7786C20.2632 19.2939 20.0412 18.3197 19.8185 17.3428C19.633 16.5287 19.447 15.7126 19.6692 15.1764C19.8791 14.6695 20.563 14.2435 21.2569 13.8113ZM16.6667 8.33329C16.911 8.10853 17.2912 8.12437 17.516 8.36868C17.7408 8.61299 17.7249 8.99325 17.4806 9.21802L10.6222 15.6445C10.3903 15.8579 10.0329 15.8559 9.80335 15.6399L6.33334 12.3333C6.09156 12.1058 6.07998 11.7254 6.30747 11.4836C6.53496 11.2418 6.91537 11.2303 7.15715 11.4577L10.2199 14.3811L16.6667 8.33329Z" fill="#222222"/>
</svg>
