<svg width="24" height="24" viewBox="0 0 24 24" fill="none" xmlns="http://www.w3.org/2000/svg">
<path d="M5.60956 17.1999C5.2981 17.0333 5.05401 16.8085 4.87729 16.5255C4.70056 16.2425 4.6122 15.9252 4.6122 15.5734V11.1682L2.50374 10.0474C2.3304 9.95233 2.20311 9.83672 2.12187 9.70052C2.04062 9.56432 2 9.41299 2 9.24652C2 9.08006 2.04062 8.92882 2.12187 8.79279C2.20311 8.65675 2.3304 8.54121 2.50374 8.44619L10.5685 4.22219C10.7117 4.14567 10.8591 4.08951 11.0108 4.05371C11.1625 4.0179 11.3183 4 11.478 4C11.6377 4 11.7934 4.0179 11.9451 4.05371C12.0968 4.08951 12.2444 4.14558 12.3878 4.22194L21.4963 8.98706C21.6588 9.07168 21.7833 9.18613 21.87 9.33041C21.9567 9.47468 22 9.63035 22 9.79742V15.7882C22 16.0039 21.9241 16.1848 21.7722 16.3307C21.6203 16.4767 21.432 16.5497 21.2075 16.5497C20.9829 16.5497 20.7948 16.4767 20.6431 16.3307C20.4915 16.1848 20.4156 16.0039 20.4156 15.7882V10.0903L18.3437 11.1682V15.5734C18.3437 15.9252 18.2554 16.2425 18.0786 16.5255C17.9019 16.8085 17.6578 17.0333 17.3464 17.1999L12.39 19.7754C12.2451 19.8535 12.0968 19.9105 11.9451 19.9463C11.7934 19.9821 11.6377 20 11.478 20C11.3183 20 11.1625 19.9821 11.0108 19.9463C10.8591 19.9105 10.7108 19.8535 10.5659 19.7754L5.60956 17.1999ZM11.3561 12.9451C11.4035 12.9712 11.4458 12.9842 11.483 12.9842C11.5203 12.9842 11.5626 12.9712 11.61 12.9451L18.7033 9.24677L11.61 5.55821C11.5626 5.53216 11.5203 5.51914 11.483 5.51914C11.4458 5.51914 11.4035 5.53216 11.3561 5.55821L4.25264 9.24677L11.3561 12.9451ZM11.3459 18.4574C11.3933 18.4835 11.4373 18.4965 11.478 18.4965C11.5186 18.4965 11.5626 18.4835 11.61 18.4574L16.607 15.8624C16.6611 15.8298 16.7001 15.7924 16.7238 15.7501C16.7475 15.7077 16.7593 15.6541 16.7593 15.589V11.9805L12.4063 14.2787C12.2614 14.3569 12.1111 14.4138 11.9553 14.4496C11.7996 14.4854 11.6405 14.5033 11.478 14.5033C11.3155 14.5033 11.1563 14.4854 11.0006 14.4496C10.8449 14.4138 10.6946 14.3569 10.5497 14.2787L6.19658 11.9805V15.589C6.19658 15.641 6.20843 15.6915 6.23213 15.7403C6.25584 15.7891 6.29478 15.8298 6.34895 15.8624L11.3459 18.4574Z" fill="#222222"/>
</svg>
