<svg width="24" height="24" viewBox="0 0 24 24" fill="none" xmlns="http://www.w3.org/2000/svg">
<path d="M15.1201 2.08343C14.703 1.87954 14.2061 2.06278 14.0095 2.48684L13.1396 4.36343C12.9438 4.78593 13.1173 5.29364 13.5328 5.4967C13.9499 5.70058 14.4468 5.51735 14.6434 5.09329L15.5133 3.2167C15.7091 2.7942 15.5355 2.28649 15.1201 2.08343Z" fill="#222222"/>
<path fill-rule="evenodd" clip-rule="evenodd" d="M10.2125 2.43428C9.98742 2.02485 9.47904 1.87786 9.07702 2.1109C8.67679 2.34291 8.53777 2.8615 8.76193 3.26926L11.9568 9.08073C11.4709 9.13864 10.9954 9.25407 10.5396 9.42313L6.52264 3.31469C6.26607 2.92453 5.74761 2.82013 5.36538 3.08517C4.98497 3.34894 4.88639 3.87703 5.14181 4.26544L9.05476 10.2158C8.7584 10.4295 8.47863 10.6704 8.21916 10.9368C7.03527 12.1525 6.37068 13.8007 6.37068 15.5187C6.37068 17.2367 7.03527 18.8849 8.21916 20.1006C9.40315 21.3164 11.0096 22 12.6853 22C14.3611 22 15.9675 21.3164 17.1515 20.1006C18.3354 18.8849 19 17.2367 19 15.5187C19 13.8007 18.3354 12.1525 17.1515 10.9368C16.7564 10.5312 16.3143 10.1847 15.8382 9.90313L18.4749 3.65865C18.6561 3.22947 18.4653 2.72817 18.043 2.54013C17.619 2.35136 17.1289 2.55252 16.947 2.98318L14.2998 9.25285C14.1711 9.21792 14.0412 9.18713 13.9103 9.16056L10.2125 2.43428ZM9.3981 12.1389C10.2704 11.2432 11.453 10.7405 12.6853 10.7405C13.9177 10.7405 15.1002 11.2432 15.9726 12.1389C16.845 13.0348 17.3357 14.2505 17.3357 15.5187C17.3357 16.787 16.845 18.0027 15.9726 18.8985C15.1002 19.7943 13.9177 20.297 12.6853 20.297C11.453 20.297 10.2704 19.7943 9.3981 18.8985C8.52566 18.0027 8.03501 16.787 8.03501 15.5187C8.03501 14.2505 8.52566 13.0348 9.3981 12.1389Z" fill="#222222"/>
</svg>
