<svg width="24" height="24" viewBox="0 0 24 24" fill="none" xmlns="http://www.w3.org/2000/svg">
<path fill-rule="evenodd" clip-rule="evenodd" d="M12.2454 2.8501C9.32267 2.8501 6.95336 5.15583 6.95336 8.0001C6.95336 10.8444 9.32267 13.1501 12.2454 13.1501C15.1681 13.1501 17.5374 10.8444 17.5374 8.0001C17.5374 5.15583 15.1681 2.8501 12.2454 2.8501ZM8.80299 8.0001C8.80299 6.14994 10.3442 4.6501 12.2454 4.6501C14.1465 4.6501 15.6877 6.14994 15.6877 8.0001C15.6877 9.85025 14.1465 11.3501 12.2454 11.3501C10.3442 11.3501 8.80299 9.85025 8.80299 8.0001ZM17.5203 13.6501C16.9623 13.6501 16.5099 14.0904 16.5099 14.6335V16.1501H14.9514C14.3933 16.1501 13.941 16.5904 13.941 17.1335C13.941 17.6766 14.3933 18.1168 14.9514 18.1168H16.5099V19.6335C16.5099 20.1766 16.9623 20.6168 17.5203 20.6168C18.0784 20.6168 18.5308 20.1766 18.5308 19.6335V18.1168H20.0893C20.6473 18.1168 21.0997 17.6766 21.0997 17.1335C21.0997 16.5904 20.6473 16.1501 20.0893 16.1501H18.5308V14.6335C18.5308 14.0904 18.0784 13.6501 17.5203 13.6501ZM12.3374 14.1046C9.49162 13.8276 7.3224 14.7572 5.80568 15.9989C4.31656 17.218 3.44658 18.7436 3.13896 19.7415C2.9922 20.2176 3.26981 20.7193 3.75903 20.8621C4.24825 21.005 4.76382 20.7348 4.91059 20.2587C5.11675 19.5899 5.78814 18.3655 6.9964 17.3763C8.17701 16.4097 9.86119 15.6726 12.1533 15.8956C12.6616 15.9451 13.1148 15.5842 13.1656 15.0897C13.2164 14.5951 12.8456 14.154 12.3374 14.1046Z" fill="#222222"/>
</svg>
