<svg width="24" height="24" viewBox="0 0 24 24" fill="none" xmlns="http://www.w3.org/2000/svg">
<path fill-rule="evenodd" clip-rule="evenodd" d="M8.69776 3.96615C9.18381 3.40399 9.93587 3 11.0149 3C12.0939 3 12.8459 3.40399 13.332 3.96615C13.7233 4.4188 13.9084 4.93378 13.9977 5.3176H15.7437C16.3499 5.3176 16.9313 5.55363 17.36 5.97378C17.7886 6.39392 18.0294 6.96376 18.0294 7.55794V14.5107C18.0294 14.8947 17.7118 15.206 17.3201 15.206C16.9283 15.206 16.6107 14.8947 16.6107 14.5107V7.55794C16.6107 7.33256 16.5194 7.11642 16.3568 6.95705C16.1942 6.79769 15.9737 6.70815 15.7437 6.70815H14.8769V7.86695C14.8769 8.17428 14.7523 8.46903 14.5306 8.68635C14.3089 8.90366 14.0082 9.02575 13.6946 9.02575H8.33509C8.02154 9.02575 7.72082 8.90366 7.49911 8.68635C7.27739 8.46903 7.15283 8.17428 7.15283 7.86695V6.70815H6.28569C6.05575 6.70815 5.83523 6.79769 5.67264 6.95705C5.51005 7.11642 5.41871 7.33256 5.41871 7.55794V18.3734C5.41871 18.5988 5.51005 18.8149 5.67264 18.9743C5.83523 19.1336 6.05575 19.2232 6.28569 19.2232H11.0147C11.4065 19.2232 11.7241 19.5345 11.7241 19.9185C11.7241 20.3024 11.4065 20.6137 11.0147 20.6137H6.28569C5.67949 20.6137 5.09811 20.3777 4.66946 19.9576C4.24081 19.5374 4 18.9676 4 18.3734V7.55794C4 6.96376 4.24081 6.39392 4.66946 5.97378C5.09811 5.55363 5.67949 5.3176 6.28569 5.3176H8.03201C8.12138 4.93378 8.3064 4.4188 8.69776 3.96615ZM9.78009 4.86518C9.5478 5.13384 9.43779 5.48031 9.39023 5.74869L9.3899 5.75053C9.31843 6.14751 9.01811 6.53703 8.57154 6.66466V7.63519H13.4582V6.66466C13.0116 6.53703 12.7113 6.14751 12.6398 5.75053L12.6395 5.74869C12.5919 5.48031 12.4819 5.13384 12.2496 4.86518C12.0417 4.62468 11.6903 4.39056 11.0149 4.39056C10.3394 4.39056 9.98802 4.62468 9.78009 4.86518Z" fill="#222222"/>
<path d="M19.7922 16.9337C20.0693 16.6622 20.0693 16.2219 19.7922 15.9504C19.5152 15.6789 19.0661 15.6789 18.7891 15.9504L15.3498 19.3214L14.275 18.268C13.998 17.9965 13.5489 17.9965 13.2719 18.268C12.9949 18.5395 12.9949 18.9798 13.2719 19.2513L14.8482 20.7964C15.1252 21.0679 15.5744 21.0679 15.8514 20.7964L19.7922 16.9337Z" fill="#222222"/>
<path fill-rule="evenodd" clip-rule="evenodd" d="M8.69776 3.96615C9.18381 3.40399 9.93587 3 11.0149 3C12.0939 3 12.8459 3.40399 13.332 3.96615C13.7233 4.4188 13.9084 4.93378 13.9977 5.3176H15.7437C16.3499 5.3176 16.9313 5.55363 17.36 5.97378C17.7886 6.39392 18.0294 6.96376 18.0294 7.55794V14.5107C18.0294 14.8947 17.7118 15.206 17.3201 15.206C16.9283 15.206 16.6107 14.8947 16.6107 14.5107V7.55794C16.6107 7.33256 16.5194 7.11642 16.3568 6.95705C16.1942 6.79769 15.9737 6.70815 15.7437 6.70815H14.8769V7.86695C14.8769 8.17428 14.7523 8.46903 14.5306 8.68635C14.3089 8.90366 14.0082 9.02575 13.6946 9.02575H8.33509C8.02154 9.02575 7.72082 8.90366 7.49911 8.68635C7.27739 8.46903 7.15283 8.17428 7.15283 7.86695V6.70815H6.28569C6.05575 6.70815 5.83523 6.79769 5.67264 6.95705C5.51005 7.11642 5.41871 7.33256 5.41871 7.55794V18.3734C5.41871 18.5988 5.51005 18.8149 5.67264 18.9743C5.83523 19.1336 6.05575 19.2232 6.28569 19.2232H11.0147C11.4065 19.2232 11.7241 19.5345 11.7241 19.9185C11.7241 20.3024 11.4065 20.6137 11.0147 20.6137H6.28569C5.67949 20.6137 5.09811 20.3777 4.66946 19.9576C4.24081 19.5374 4 18.9676 4 18.3734V7.55794C4 6.96376 4.24081 6.39392 4.66946 5.97378C5.09811 5.55363 5.67949 5.3176 6.28569 5.3176H8.03201C8.12138 4.93378 8.3064 4.4188 8.69776 3.96615ZM9.78009 4.86518C9.5478 5.13384 9.43779 5.48031 9.39023 5.74869L9.3899 5.75053C9.31843 6.14751 9.01811 6.53703 8.57154 6.66466V7.63519H13.4582V6.66466C13.0116 6.53703 12.7113 6.14751 12.6398 5.75053L12.6395 5.74869C12.5919 5.48031 12.4819 5.13384 12.2496 4.86518C12.0417 4.62468 11.6903 4.39056 11.0149 4.39056C10.3394 4.39056 9.98802 4.62468 9.78009 4.86518Z" stroke="#222222" stroke-width="0.3" stroke-linecap="round" stroke-linejoin="round"/>
<path d="M19.7922 16.9337C20.0693 16.6622 20.0693 16.2219 19.7922 15.9504C19.5152 15.6789 19.0661 15.6789 18.7891 15.9504L15.3498 19.3214L14.275 18.268C13.998 17.9965 13.5489 17.9965 13.2719 18.268C12.9949 18.5395 12.9949 18.9798 13.2719 19.2513L14.8482 20.7964C15.1252 21.0679 15.5744 21.0679 15.8514 20.7964L19.7922 16.9337Z" stroke="#222222" stroke-width="0.3" stroke-linecap="round" stroke-linejoin="round"/>
</svg>
