<svg width="24" height="24" viewBox="0 0 24 24" fill="none" xmlns="http://www.w3.org/2000/svg">
<path d="M2 5C2 3.89543 2.85279 3 3.90476 3H20.0952C21.1472 3 22 3.89543 22 5V9.58127C22 9.82411 21.7667 10 21.5238 10C20.4718 10 19.619 10.8954 19.619 12C19.619 13.1046 20.4718 14 21.5238 14C21.7667 14 22 14.1759 22 14.4187V19C22 20.1046 21.1472 21 20.0952 21H3.90476C2.85279 21 2 20.1046 2 19V14.4187C2 14.1759 2.23335 14 2.47619 14C3.52816 14 4.38095 13.1046 4.38095 12C4.38095 10.8954 3.52816 10 2.47619 10C2.23335 10 2 9.82411 2 9.58127V5Z" fill="url(#paint0_linear_28_2942)"/>
<path d="M12.0015 6.99733C11.0121 6.99691 10.0447 7.28988 9.22176 7.83918C8.39883 8.38848 7.75733 9.16943 7.37839 10.0833C6.99944 10.9971 6.90007 12.0028 7.09285 12.9731C7.28563 13.9434 7.7619 14.8347 8.46142 15.5344C9.16094 16.2341 10.0523 16.7106 11.0227 16.9037C11.9931 17.0969 12.9991 16.998 13.9133 16.6195C14.8275 16.241 15.6089 15.6 16.1586 14.7775C16.7084 13.955 17.0018 12.9879 17.0018 11.9987C17.0018 10.6726 16.4751 9.4008 15.5374 8.46293C14.5997 7.52506 13.3279 6.99789 12.0015 6.99733ZM12.0015 13.8896C11.6274 13.8898 11.2616 13.7791 10.9505 13.5714C10.6393 13.3638 10.3967 13.0685 10.2534 12.723C10.1101 12.3775 10.0725 11.9973 10.1453 11.6304C10.2182 11.2635 10.3982 10.9265 10.6627 10.6619C10.9272 10.3974 11.2642 10.2172 11.6311 10.1441C11.998 10.0711 12.3784 10.1085 12.724 10.2516C13.0697 10.3946 13.3651 10.637 13.573 10.948C13.7809 11.259 13.8918 11.6246 13.8918 11.9987C13.892 12.2469 13.8432 12.4928 13.7482 12.7222C13.6533 12.9516 13.5141 13.1601 13.3385 13.3357C13.163 13.5113 12.9546 13.6506 12.7252 13.7456C12.4957 13.8407 12.2499 13.8896 12.0015 13.8896Z" fill="white"/>
<path d="M15.2856 16.9997C16.2327 16.9997 17.0006 16.232 17.0006 15.2851C17.0006 14.3381 16.2327 13.5705 15.2856 13.5705C14.3384 13.5705 13.5706 14.3381 13.5706 15.2851C13.5706 16.232 14.3384 16.9997 15.2856 16.9997Z" fill="url(#paint1_linear_28_2942)"/>
<defs>
<linearGradient id="paint0_linear_28_2942" x1="4.91677" y1="4.93256" x2="25.8064" y2="8.75551" gradientUnits="userSpaceOnUse">
<stop stop-color="#FF6800"/>
<stop offset="1" stop-color="#FF3200"/>
</linearGradient>
<linearGradient id="paint1_linear_28_2942" x1="13.5002" y1="13.5007" x2="16.5011" y2="16.5023" gradientUnits="userSpaceOnUse">
<stop stop-color="#FF5500"/>
<stop offset="1" stop-color="white"/>
</linearGradient>
</defs>
</svg>
