<svg width="24" height="24" viewBox="0 0 24 24" fill="none" xmlns="http://www.w3.org/2000/svg">
<path d="M9.44427 9.95077C9.44427 11.3631 10.45 12.3877 11.8031 12.3877C12.0043 12.3877 12.1963 12.3692 12.3791 12.3231L11.9341 11.7551C11.6451 11.3862 11.7114 10.8527 12.0818 10.5658C12.4488 10.2816 12.9764 10.3466 13.2634 10.7114L13.7688 11.3538C14.0157 10.9662 14.162 10.4862 14.162 9.95077C14.162 8.52923 13.1563 7.51385 11.8031 7.51385C10.45 7.51385 9.44427 8.52923 9.44427 9.95077Z" fill="#222222"/>
<path fill-rule="evenodd" clip-rule="evenodd" d="M6.51429 17.3077H19.3143C19.693 17.3077 20 16.9977 20 16.6154C20 16.5702 19.9957 16.5261 19.9875 16.4834C19.9957 16.4407 20 16.3965 20 16.3514V4.24615C20 3.91565 19.87 3.59869 19.6385 3.36499C19.407 3.13129 19.0931 3 18.7657 3H6.51429C5.84746 3 5.20794 3.26744 4.73642 3.7435C4.2649 4.21955 4 4.86522 4 5.53846V18.4615C4 19.1348 4.2649 19.7804 4.73642 20.2565C5.20794 20.7326 5.84746 21 6.51429 21H19.3143C19.693 21 20 20.69 20 20.3077C20 19.9253 19.693 19.6154 19.3143 19.6154H6.51429C6.21118 19.6154 5.92049 19.4938 5.70616 19.2774C5.49184 19.061 5.37143 18.7676 5.37143 18.4615C5.37143 18.1555 5.49184 17.862 5.70616 17.6456C5.92049 17.4293 6.21118 17.3077 6.51429 17.3077ZM11.8031 6C14.1163 6 15.826 7.67077 15.826 9.95077C15.826 11.0308 15.442 11.9723 14.7928 12.6646L15.2773 13.2827C15.5646 13.6492 15.4985 14.1796 15.13 14.4644C14.7659 14.7458 14.2433 14.6816 13.9581 14.3205L13.394 13.6062C12.9186 13.8 12.3791 13.9015 11.8031 13.9015C9.48999 13.9015 7.78027 12.2308 7.78027 9.95077C7.78027 7.67077 9.48999 6 11.8031 6Z" fill="#222222"/>
</svg>
