<svg width="24" height="24" viewBox="0 0 24 24" fill="none" xmlns="http://www.w3.org/2000/svg">
<path fill-rule="evenodd" clip-rule="evenodd" d="M8.2501 2.42499C7.1968 2.42499 6.3501 3.30204 6.3501 4.37499V5.23202C5.75364 5.5619 5.3501 6.20926 5.3501 6.94998V8.50701C4.75364 8.83689 4.3501 9.48424 4.3501 10.225V19.625C4.3501 20.6979 5.1968 21.575 6.2501 21.575H17.7501C18.8034 21.575 19.6501 20.6979 19.6501 19.625V10.225C19.6501 9.48424 19.2466 8.83689 18.6501 8.50701V6.94998C18.6501 6.20926 18.2466 5.5619 17.6501 5.23202V4.37499C17.6501 3.30204 16.8034 2.42499 15.7501 2.42499H8.2501ZM16.0376 4.99998V4.37499C16.0376 4.20529 15.9049 4.07499 15.7501 4.07499H8.2501C8.09527 4.07499 7.9626 4.20529 7.9626 4.37499V4.99998H16.0376ZM17.0376 6.94998V8.27496H6.9626V6.94998C6.9626 6.78028 7.09527 6.64998 7.2501 6.64998H16.7501C16.9049 6.64998 17.0376 6.78028 17.0376 6.94998ZM6.2501 9.92496C6.09527 9.92496 5.9626 10.0553 5.9626 10.225V19.625C5.9626 19.7947 6.09527 19.925 6.2501 19.925H17.7501C17.9049 19.925 18.0376 19.7947 18.0376 19.625V10.225C18.0376 10.0553 17.9049 9.92496 17.7501 9.92496H6.2501ZM7.5001 13.25C7.5001 12.7984 7.85711 12.425 8.30635 12.425H15.4313C15.8806 12.425 16.2376 12.7984 16.2376 13.25C16.2376 13.7016 15.8806 14.075 15.4313 14.075H8.30635C7.85711 14.075 7.5001 13.7016 7.5001 13.25ZM7.5001 16.25C7.5001 15.7984 7.85711 15.425 8.30635 15.425H12.4313C12.8806 15.425 13.2376 15.7984 13.2376 16.25C13.2376 16.7016 12.8806 17.075 12.4313 17.075H8.30635C7.85711 17.075 7.5001 16.7016 7.5001 16.25Z" fill="#222222"/>
</svg>
