<svg width="24" height="24" viewBox="0 0 24 24" fill="none" xmlns="http://www.w3.org/2000/svg">
<path fill-rule="evenodd" clip-rule="evenodd" d="M4.8501 4.95C4.8501 3.87706 5.6968 3 6.7501 3H13.9002C14.4055 3 14.8892 3.2065 15.2452 3.57265L18.5951 7.01823C18.9509 7.38423 19.1501 7.87975 19.1501 8.39558V12.3892C19.1501 11.4222 19.1501 11.9308 19.1501 12.3892V13.9964C19.1501 14.129 19.1011 14.2634 18.985 14.3275C18.6876 14.4917 18.2897 14.4504 18.0429 14.2035L16.1036 12.2642C15.9083 12.0689 15.5917 12.0689 15.3964 12.2642L13.4571 14.2035C13.0666 14.5941 12.4334 14.5941 12.0429 14.2035L10.1036 12.2642C9.90829 12.0689 9.59171 12.0689 9.39645 12.2642L7.45711 14.2035C7.06658 14.5941 6.5 14.6 6.04289 14.2035L4.9966 13.1572C4.90285 13.0634 4.85018 12.9367 4.85017 12.8041C4.85007 11.4189 4.8501 9.50424 4.8501 4.95ZM6.4626 12.232C6.4626 12.3947 6.5414 12.565 6.70338 12.58C6.8464 12.5934 6.99405 12.5453 7.10355 12.4358L9.04289 10.4964C9.43342 10.1059 10.0666 10.1059 10.4571 10.4964L12.3964 12.4358C12.5917 12.631 12.9083 12.631 13.1036 12.4358L15.0429 10.4964C15.4334 10.1059 16.0666 10.1059 16.4571 10.4964L17.1962 11.2355C17.3222 11.3615 17.5376 11.2723 17.5376 11.0941V9.15H14.5964C13.8006 9.15 13.1626 8.48764 13.1626 7.67953V4.65H6.7501C6.59527 4.65 6.4626 4.7803 6.4626 4.95V12.232ZM14.7751 5.42866V7.5H16.7889L14.7751 5.42866Z" fill="#222222"/>
<path fill-rule="evenodd" clip-rule="evenodd" d="M4.8501 19.35C4.8501 20.4229 5.6968 21.3 6.7501 21.3H17.2501C18.3034 21.3 19.1501 20.4229 19.1501 19.35V16.9843C18.9071 16.7413 18.635 16.4744 18.3964 16.2358L16.4571 14.2965C16.0666 13.9059 15.4334 13.9059 15.0429 14.2965L13.1035 16.2358C12.9083 16.4311 12.5917 16.4311 12.3964 16.2358L10.4571 14.2965C10.0666 13.9059 9.43342 13.9059 9.0429 14.2965L7.10355 16.2358C6.90829 16.4311 6.59171 16.4311 6.39645 16.2358L4.85014 14.6895L4.8501 19.35ZM16.1035 16.0642L17.5376 17.4983V19.35C17.5376 19.5197 17.4049 19.65 17.2501 19.65H6.7501C6.59527 19.65 6.4626 19.5197 6.4626 19.35V18.2478C6.81476 18.364 7.18019 18.2805 7.4571 18.0036L9.39645 16.0642C9.59171 15.869 9.90829 15.869 10.1036 16.0642L12.0429 18.0036C12.4334 18.3941 13.0666 18.3941 13.4571 18.0036L15.3964 16.0642C15.5917 15.869 15.9083 15.869 16.1035 16.0642Z" fill="#222222"/>
</svg>
