<svg width="24" height="24" viewBox="0 0 24 24" fill="none" xmlns="http://www.w3.org/2000/svg">
<path fill-rule="evenodd" clip-rule="evenodd" d="M6.51429 2.84998C5.80721 2.84998 5.12939 3.13358 4.62985 3.63792C4.13036 4.14221 3.85001 4.82587 3.85001 5.53844V18.4615C3.85001 19.1741 4.13036 19.8577 4.62985 20.362C5.12939 20.8664 5.80721 21.15 6.51429 21.15H19.3143C19.7772 21.15 20.15 20.7715 20.15 20.3077C20.15 19.8438 19.7772 19.4654 19.3143 19.4654H6.51429C6.25144 19.4654 5.99905 19.3599 5.81274 19.1718C5.62638 18.9837 5.52143 18.7282 5.52143 18.4615C5.52143 18.1948 5.62638 17.9393 5.81274 17.7512C5.99905 17.5631 6.25144 17.4577 6.51429 17.4577H19.3143C19.7772 17.4577 20.15 17.0792 20.15 16.6154C20.15 16.5705 20.1465 16.5264 20.1398 16.4834C20.1465 16.4403 20.15 16.3962 20.15 16.3514V4.24613C20.15 3.87631 20.0045 3.52135 19.7451 3.25941C19.4856 2.99742 19.1333 2.84998 18.7657 2.84998H6.51429ZM5.81274 4.8281C5.99905 4.64 6.25144 4.53459 6.51429 4.53459H7.50715V11.0769C7.50715 11.384 7.67307 11.6674 7.94113 11.8155C8.20936 11.9637 8.53646 11.9524 8.79391 11.786L10.6286 10.6005L12.4632 11.786C12.7207 11.9524 13.0478 11.9637 13.316 11.8155C13.5841 11.6674 13.75 11.384 13.75 11.0769V4.53459H18.4786V15.7731H6.51429C6.17076 15.7731 5.8341 15.84 5.52143 15.9667V5.53844C5.52143 5.27174 5.62638 5.01625 5.81274 4.8281ZM9.17858 9.53636V4.53459H12.0786V9.53636L11.0796 8.89088C10.8047 8.71326 10.4524 8.71326 10.1775 8.89088L9.17858 9.53636Z" fill="#222222"/>
</svg>
