<svg width="24" height="24" viewBox="0 0 24 24" fill="none" xmlns="http://www.w3.org/2000/svg">
<path fill-rule="evenodd" clip-rule="evenodd" d="M11.3906 3C11.8259 3 12.3595 3 12.8075 3.0863C16.978 3.77239 20 7.20203 20 11.3218V15.4757C20 16.378 19.2534 17.1852 18.2332 17.1852H16.0494V19.2904C16.0494 20.2809 15.2994 21 14.2826 21H5.7668C4.84123 21 4 20.2842 4 19.2904V8.52433C4 7.53386 4.74997 6.81476 5.7668 6.81476H7.95062V4.70958C7.95062 3.80723 8.69717 3 9.71742 3H11.3906ZM9.46502 4.70958C9.46502 4.65826 9.49268 4.59773 9.54455 4.54765C9.59619 4.49778 9.6605 4.46939 9.71742 4.46939H11.1221C12.3 4.46939 13.3059 5.44574 13.3059 6.57457V7.84615C13.3059 8.83992 14.1471 9.55573 15.0727 9.55573H16.3896C17.5675 9.55573 18.5734 10.5321 18.5734 11.6609V15.4757C18.5734 15.527 18.5457 15.5875 18.4939 15.6376C18.4422 15.6875 18.3779 15.7159 18.321 15.7159H9.71742C9.6605 15.7159 9.59619 15.6875 9.54455 15.6376C9.49268 15.5875 9.46502 15.527 9.46502 15.4757V4.70958ZM14.7325 6.65934C14.7325 6.13682 14.6007 5.61672 14.3948 5.15243C15.924 5.81193 17.0977 7.00687 17.8502 8.49302C17.3723 8.29649 16.838 8.17111 16.3018 8.17111H14.9849C14.928 8.17111 14.8637 8.14272 14.812 8.09286C14.7602 8.04277 14.7325 7.98224 14.7325 7.93093V6.65934ZM7.47774 8.27433C7.53911 8.2447 7.62475 8.24148 7.73263 8.2519C7.77103 8.25561 7.80872 8.26058 7.84731 8.26567L7.89155 8.27144C7.91101 8.27391 7.93081 8.2763 7.95062 8.27833V15.4757C7.95062 16.4694 8.79185 17.1852 9.71742 17.1852H14.6228V19.3752C14.6228 19.4265 14.5951 19.487 14.5432 19.5371C14.4916 19.587 14.4273 19.6154 14.3704 19.6154H5.7668C5.70989 19.6154 5.64557 19.587 5.59393 19.5371C5.54207 19.487 5.5144 19.4265 5.5144 19.3752V8.52433C5.5144 8.47302 5.54207 8.41249 5.59393 8.3624C5.64557 8.31254 5.70989 8.28414 5.7668 8.28414H7.45741L7.47774 8.27433Z" fill="#222222"/>
</svg>
