<svg width="24" height="24" viewBox="0 0 24 24" fill="none" xmlns="http://www.w3.org/2000/svg">
<path d="M7.82001 9.8501C7.40579 9.8501 7.07001 10.1859 7.07001 10.6001C7.07001 11.0143 7.40579 11.3501 7.82001 11.3501H13.32C13.7342 11.3501 14.07 11.0143 14.07 10.6001C14.07 10.1859 13.7342 9.8501 13.32 9.8501H7.82001Z" fill="#222222"/>
<path fill-rule="evenodd" clip-rule="evenodd" d="M3 10.6348C3 6.42025 6.38547 3 10.5662 3C14.7469 3 18.1324 6.42026 18.1324 10.6348C18.1324 12.4032 17.5363 14.0319 16.5357 15.3265L20.7209 19.4115C21.0844 19.7663 21.0941 20.3505 20.7426 20.7174C20.39 21.0854 19.8076 21.0953 19.4428 20.7393L15.2412 16.6383C13.9545 17.6599 12.3307 18.2696 10.5662 18.2696C6.38547 18.2696 3 14.8494 3 10.6348ZM10.5662 4.84921C7.40369 4.84921 4.83634 7.43749 4.83634 10.6348C4.83634 13.8321 7.40369 16.4204 10.5662 16.4204C13.7287 16.4204 16.296 13.8321 16.296 10.6348C16.296 7.43749 13.7287 4.84921 10.5662 4.84921Z" fill="#222222"/>
</svg>
