<svg width="24" height="24" viewBox="0 0 24 24" fill="none" xmlns="http://www.w3.org/2000/svg">
<path d="M12 6.41365C10.1983 6.41365 8.62686 7.79136 8.62686 9.62289C8.62686 10.1278 9.03614 10.5371 9.54102 10.5371C10.0459 10.5371 10.4552 10.1278 10.4552 9.62289C10.4552 8.91718 11.0879 8.24197 12 8.24197C12.9121 8.24197 13.5449 8.91718 13.5449 9.62289C13.5449 10.0187 13.3572 10.3899 13.0272 10.6533C12.6582 10.9479 12.1874 11.3321 11.8123 11.7911C11.4324 12.2559 11.0859 12.8748 11.0859 13.6397V14.2131C11.0859 14.7179 11.4952 15.1272 12 15.1272C12.5049 15.1272 12.9142 14.7179 12.9142 14.2131V13.6397C12.9142 13.4535 12.9951 13.233 13.2279 12.9481C13.4656 12.6573 13.7935 12.381 14.1678 12.0822C14.8923 11.5039 15.3732 10.6242 15.3732 9.62289C15.3732 7.79136 13.8018 6.41365 12 6.41365Z" fill="#222222"/>
<path d="M12.0002 15.7706C11.3664 15.7706 10.8526 16.2843 10.8526 16.9181C10.8526 17.5519 11.3664 18.0656 12.0002 18.0656C12.6339 18.0656 13.1477 17.5519 13.1477 16.9181C13.1477 16.2843 12.6339 15.7706 12.0002 15.7706Z" fill="#222222"/>
<path fill-rule="evenodd" clip-rule="evenodd" d="M12 2C6.47715 2 2 6.47715 2 12C2 17.5228 6.47715 22 12 22C17.5228 22 22 17.5228 22 12C22 6.47715 17.5228 2 12 2ZM3.80328 12C3.80328 7.47308 7.47308 3.80328 12 3.80328C16.5269 3.80328 20.1967 7.47308 20.1967 12C20.1967 16.5269 16.5269 20.1967 12 20.1967C7.47308 20.1967 3.80328 16.5269 3.80328 12Z" fill="#222222"/>
</svg>
