<svg width="24" height="24" viewBox="0 0 24 24" fill="none" xmlns="http://www.w3.org/2000/svg">
<path fill-rule="evenodd" clip-rule="evenodd" d="M11.7402 2C10.78 2 9.96818 2.56804 9.7041 3.41565C9.47526 3.29471 9.24127 3.23153 9.0032 3.23153C7.77513 3.23153 6.82529 4.17633 6.82529 5.40253V5.94975C6.75323 5.94193 6.67871 5.92967 6.59925 5.91648L6.59391 5.91559C6.46502 5.89418 6.3225 5.87051 6.17791 5.87051C4.94985 5.87051 4 6.81532 4 8.04152V15.2547C4 18.944 7.06881 22 10.769 22H12.5348C13.9838 22 15.3477 21.4583 16.349 20.3715L17.8477 18.8783C18.8434 17.8862 19.4804 16.5301 19.4804 15.0788V12.9676C19.4804 12.5446 19.5661 12.0359 19.7348 11.6155L19.7376 11.6072C19.8714 11.2073 19.9874 10.7728 19.999 10.3548C20.0107 9.93475 19.9172 9.52168 19.6228 9.17838C19.4324 8.94176 19.2138 8.77157 18.934 8.66247C18.6566 8.55432 18.3273 8.5095 17.9205 8.5095C17.4466 8.5095 17.0414 8.64212 16.6551 8.84491V5.4905C16.6551 4.2643 15.7053 3.31949 14.4772 3.31949C14.2356 3.31949 13.9972 3.38558 13.7752 3.45719C13.453 2.59563 12.6428 2 11.7402 2ZM11.1811 4.17101C11.1811 3.82561 11.455 3.61506 11.7402 3.61506C12.0895 3.61506 12.2993 3.88946 12.2993 4.17101V11.3842C12.2993 11.8064 12.6192 12.2357 13.1528 12.2357C13.5739 12.2357 14.0064 11.9185 14.0064 11.3842V5.4905C14.0064 5.36206 14.0691 5.22556 14.1559 5.05184C14.2805 4.93703 14.3983 4.93455 14.5655 4.93455C14.9148 4.93455 15.1246 5.20895 15.1246 5.4905V13.9011C14.1705 14.095 13.2212 14.5385 12.5194 15.2378C12.1965 15.5595 12.1965 16.0935 12.5194 16.4152C12.8417 16.7363 13.3757 16.7363 13.698 16.4152C14.2887 15.8267 15.1344 15.4905 15.8898 15.4905H15.9781C16.2054 15.4905 16.3969 15.3774 16.5282 15.2336C16.6575 15.0918 16.7434 14.9037 16.7434 14.727V12.5278C16.7434 12.4552 16.7625 12.338 16.7855 12.2004L16.7873 12.1898C16.808 12.066 16.8317 11.9243 16.8317 11.8238V11.663C16.8745 11.4537 16.9374 11.2266 17.0197 11.0216C17.1048 10.8096 17.206 10.633 17.3179 10.5215C17.4606 10.3793 17.6846 10.3005 17.9205 10.3005C18.1323 10.3005 18.2504 10.3217 18.3107 10.3389C18.3354 10.3459 18.3496 10.352 18.3562 10.3552L18.3783 10.3772C18.3799 10.4201 18.3742 10.4845 18.3602 10.5681C18.3346 10.7213 18.2883 10.9019 18.2474 11.0612C18.2376 11.0997 18.2278 11.1378 18.219 11.1731C18.1307 11.5246 18.0417 11.8794 17.9528 12.3227L17.9499 12.3371V12.3519C17.9499 12.4934 17.935 12.7848 17.9172 13.1326L17.9059 13.356C17.8839 13.7952 17.8616 14.2828 17.8616 14.639V15.0788C17.8616 16.0898 17.4396 17.0224 16.7542 17.7919L15.2564 19.2843C14.4918 20.046 13.5591 20.3849 12.5348 20.3849H10.769C7.93572 20.3849 5.61883 18.075 5.61883 15.2547V8.12949C5.61883 7.78409 5.89269 7.57354 6.17791 7.57354C6.52722 7.57354 6.737 7.84794 6.737 8.12949V12C6.737 12.4222 7.05697 12.8515 7.59056 12.8515C7.8405 12.8515 8.05785 12.7763 8.21299 12.6217C8.36827 12.467 8.44412 12.2499 8.44412 12V5.4905C8.44412 5.1451 8.71797 4.93455 9.0032 4.93455C9.28843 4.93455 9.56228 5.1451 9.56228 5.4905L9.5623 5.49302L9.65057 10.6818C9.65091 10.8962 9.73272 11.0905 9.88679 11.2301C10.0402 11.369 10.2543 11.4441 10.5041 11.4441C10.7188 11.4441 10.9138 11.363 11.0542 11.2092C11.1938 11.0561 11.2694 10.8423 11.2694 10.5925L11.1811 5.40128V4.17101Z" fill="#222222"/>
</svg>
