<svg width="24" height="24" viewBox="0 0 24 24" fill="none" xmlns="http://www.w3.org/2000/svg">
<path d="M8.07692 4.8C8.58672 4.8 9 4.39706 9 3.9C9 3.40294 8.58672 3 8.07692 3H6C5.20435 3 4.44129 3.30817 3.87868 3.85671C3.31607 4.40526 3 5.14924 3 5.925V18.075C3 18.8508 3.31607 19.5947 3.87868 20.1433C4.44129 20.6918 5.20435 21 6 21H8.07692C8.58672 21 9 20.5971 9 20.1C9 19.6029 8.58672 19.2 8.07692 19.2H6C5.69398 19.2 5.4005 19.0815 5.18411 18.8705C4.96772 18.6595 4.84615 18.3734 4.84615 18.075L4.84615 5.925C4.84615 5.62663 4.96772 5.34048 5.18411 5.1295C5.4005 4.91853 5.69398 4.8 6 4.8L8.07692 4.8Z" fill="#222222"/>
<path d="M16.6709 16.7337L20.7355 12.6428C21.0882 12.2878 21.0882 11.7122 20.7355 11.3572L16.6709 7.26627C16.3182 6.91124 15.7463 6.91124 15.3936 7.26627C15.0408 7.62129 15.0408 8.19689 15.3936 8.55192L17.9162 11.0909H7.90323C7.40439 11.0909 7 11.4979 7 12C7 12.5021 7.40439 12.9091 7.90323 12.9091H17.9162L15.3936 15.4481C15.0408 15.8031 15.0408 16.3787 15.3936 16.7337C15.7463 17.0888 16.3182 17.0888 16.6709 16.7337Z" fill="#222222"/>
</svg>
