<svg width="24" height="24" viewBox="0 0 24 24" fill="none" xmlns="http://www.w3.org/2000/svg">
<path d="M18.4812 19.4812C18.807 19.807 19.3382 19.809 19.6357 19.4572C20.7269 18.1669 21.4764 16.6172 21.8079 14.9509C22.1937 13.0111 21.9957 11.0004 21.2388 9.17317C20.4819 7.3459 19.2002 5.78412 17.5557 4.6853C15.9112 3.58649 13.9778 3 12 3C10.0222 3 8.08879 3.58649 6.4443 4.6853C4.79981 5.78412 3.51808 7.3459 2.76121 9.17317C2.00433 11.0004 1.8063 13.0111 2.19215 14.9509C2.5236 16.6172 3.27308 18.1669 4.36428 19.4572C4.6618 19.809 5.19305 19.807 5.51884 19.4812C5.84464 19.1554 5.84091 18.6295 5.54931 18.2728C4.68838 17.2196 4.09563 15.9679 3.82859 14.6254C3.50712 13.0092 3.67211 11.3341 4.3027 9.81167C4.9333 8.28929 6.00116 6.98809 7.37127 6.07261C8.74138 5.15714 10.3522 4.6685 12 4.6685C13.6478 4.6685 15.2586 5.15714 16.6287 6.07261C17.9988 6.98809 19.0667 8.28929 19.6973 9.81167C20.3279 11.3341 20.4929 13.0092 20.1714 14.6254C19.9044 15.9679 19.3116 17.2196 18.4507 18.2728C18.1591 18.6295 18.1554 19.1554 18.4812 19.4812Z" fill="#222222"/>
<path d="M14.3579 13.1079C14.3579 14.3505 13.3505 15.3579 12.1079 15.3579C10.8652 15.3579 9.85785 14.3505 9.85785 13.1079C9.85785 11.8652 10.8652 10.8579 12.1079 10.8579C12.4287 10.8579 12.7339 10.925 13.0102 11.0461L14.5552 9.50106C14.8871 9.16911 15.4253 9.16911 15.7573 9.50106C16.0892 9.833 16.0892 10.3712 15.7573 10.7031L14.1949 12.2655C14.3 12.5257 14.3579 12.81 14.3579 13.1079Z" fill="#222222"/>
</svg>
