<svg width="24" height="24" viewBox="0 0 24 24" fill="none" xmlns="http://www.w3.org/2000/svg">
<path fill-rule="evenodd" clip-rule="evenodd" d="M12 3C7.02944 3 3 7.02944 3 12C3 13.5334 3.3836 14.9776 4.06018 16.2415L3.32227 19.4392C3.15065 20.1828 3.81716 20.8494 4.56084 20.6777L7.75847 19.9398C9.02238 20.6164 10.4666 21 12 21C16.9706 21 21 16.9706 21 12C21 7.02944 16.9706 3 12 3ZM4.62295 12C4.62295 7.92577 7.92577 4.62295 12 4.62295C16.0742 4.62295 19.377 7.92577 19.377 12C19.377 16.0742 16.0742 19.377 12 19.377C10.7239 19.377 9.52768 19.0543 8.48395 18.4872L7.99262 18.2202L5.11598 18.884L5.77982 16.0074L5.51285 15.5161C4.9457 14.4723 4.62295 13.2761 4.62295 12Z" fill="#222222"/>
<path d="M12 8.66667C12.4729 8.66667 12.8563 9.03976 12.8563 9.5V11.1667H14.5689C15.0419 11.1667 15.4252 11.5398 15.4252 12C15.4252 12.4602 15.0419 12.8333 14.5689 12.8333H12.8563V14.5C12.8563 14.9602 12.4729 15.3333 12 15.3333C11.5271 15.3333 11.1437 14.9602 11.1437 14.5V12.8333H9.43107C8.95814 12.8333 8.57476 12.4602 8.57476 12C8.57476 11.5398 8.95814 11.1667 9.43107 11.1667H11.1437V9.5C11.1437 9.03976 11.5271 8.66667 12 8.66667Z" fill="#222222"/>
</svg>
