<svg width="24" height="24" viewBox="0 0 24 24" fill="none" xmlns="http://www.w3.org/2000/svg">
<path fill-rule="evenodd" clip-rule="evenodd" d="M2.85947 4.88893C3.41454 4.32391 4.1748 4 4.97506 4H19.0249C19.8252 4 20.5855 4.32391 21.1405 4.88893C21.6945 5.45282 22 6.21076 22 6.99441V7.22601V17.0056C22 17.7892 21.6945 18.5472 21.1405 19.1111C20.5855 19.6761 19.8252 20 19.0249 20H4.97506C4.1748 20 3.41454 19.6761 2.85947 19.1111C2.30551 18.5472 2 17.7892 2 17.0056V7.22762V6.99441C2 6.21076 2.30551 5.45282 2.85947 4.88893ZM3.73516 6.99441V7.22705C3.73516 7.22696 3.73516 7.22715 3.73516 7.22705C3.73518 7.45432 3.79244 7.67656 3.89941 7.87154C4.00631 8.06639 4.15825 8.22622 4.33762 8.33872C4.33757 8.33869 4.33767 8.33875 4.33762 8.33872L11.3623 12.7378C11.5566 12.8596 11.7775 12.9226 12 12.9226C12.2225 12.9226 12.443 12.8598 12.6373 12.738L19.6622 8.33787C19.8417 8.22536 19.9937 8.06549 20.1006 7.87059C20.2076 7.6756 20.2648 7.45375 20.2648 7.22648C20.2648 7.22638 20.2648 7.22658 20.2648 7.22648V6.99441C20.2648 6.64016 20.1263 6.30679 19.8898 6.06605C19.6544 5.82645 19.3426 5.69832 19.0249 5.69832H4.97506C4.65744 5.69832 4.34561 5.82645 4.11023 6.06605C3.87373 6.30679 3.73516 6.64016 3.73516 6.99441ZM20.2648 9.97672L13.5732 14.1681C13.5731 14.1682 13.5733 14.168 13.5732 14.1681C13.103 14.4629 12.558 14.6209 12 14.6209C11.442 14.6209 10.8974 14.4631 10.4272 14.1683C10.427 14.1683 10.4273 14.1684 10.4272 14.1683L3.73516 9.97763V17.0056C3.73516 17.3598 3.87373 17.6932 4.11023 17.9339C4.34561 18.1736 4.65744 18.3017 4.97506 18.3017H19.0249C19.3426 18.3017 19.6544 18.1736 19.8898 17.9339C20.1263 17.6932 20.2648 17.3598 20.2648 17.0056V9.97672Z" fill="#222222"/>
</svg>
