<svg width="24" height="24" viewBox="0 0 24 24" fill="none" xmlns="http://www.w3.org/2000/svg">
<path d="M12 6.91803C11.3697 6.91803 10.8652 7.44091 10.8877 8.0708L11.0721 13.2358C11.09 13.7354 11.5001 14.1311 12 14.1311C12.4999 14.1311 12.91 13.7354 12.9279 13.2358L13.1123 8.0708C13.1348 7.44091 12.6303 6.91803 12 6.91803Z" fill="#222222"/>
<path d="M12 14.7869C11.3662 14.7869 10.8525 15.3007 10.8525 15.9344C10.8525 16.5682 11.3662 17.082 12 17.082C12.6338 17.082 13.1475 16.5682 13.1475 15.9344C13.1475 15.3007 12.6338 14.7869 12 14.7869Z" fill="#222222"/>
<path fill-rule="evenodd" clip-rule="evenodd" d="M20.4219 17.66L12.4664 3.77425C12.2569 3.40858 11.7431 3.40858 11.5336 3.77425L3.57806 17.66C3.35536 18.0487 3.6453 18.5 4.04444 18.5H19.9556C20.3547 18.5 20.6446 18.0487 20.4219 17.66ZM13.7679 3.02857C12.9822 1.65714 11.0178 1.65714 10.2321 3.02857L2.27654 16.9143C1.49081 18.2857 2.47297 20 4.04444 20H19.9556C21.527 20 22.5092 18.2857 21.7235 16.9143L13.7679 3.02857Z" fill="#222222"/>
</svg>
