<svg width="24" height="24" viewBox="0 0 24 24" fill="none" xmlns="http://www.w3.org/2000/svg">
<path d="M10.0328 7.90164C9.39902 7.90164 8.88525 8.41541 8.88525 9.04918V14.9508C8.88525 15.5846 9.39902 16.0984 10.0328 16.0984C10.6666 16.0984 11.1803 15.5846 11.1803 14.9508V9.04918C11.1803 8.41541 10.6666 7.90164 10.0328 7.90164Z" fill="#222222"/>
<path d="M13.9672 7.90164C13.3334 7.90164 12.8197 8.41541 12.8197 9.04918V14.9508C12.8197 15.5846 13.3334 16.0984 13.9672 16.0984C14.601 16.0984 15.1148 15.5846 15.1148 14.9508V9.04918C15.1148 8.41541 14.601 7.90164 13.9672 7.90164Z" fill="#222222"/>
<path fill-rule="evenodd" clip-rule="evenodd" d="M12 2C6.47715 2 2 6.47715 2 12C2 17.5228 6.47715 22 12 22C17.5228 22 22 17.5228 22 12C22 6.47715 17.5228 2 12 2ZM3.80328 12C3.80328 7.47308 7.47308 3.80328 12 3.80328C16.5269 3.80328 20.1967 7.47308 20.1967 12C20.1967 16.5269 16.5269 20.1967 12 20.1967C7.47308 20.1967 3.80328 16.5269 3.80328 12Z" fill="#222222"/>
</svg>
