<svg width="24" height="24" viewBox="0 0 24 24" fill="none" xmlns="http://www.w3.org/2000/svg">
<path d="M8.70313 7.42802C8.35102 7.07591 7.78013 7.07591 7.42802 7.42802C7.07591 7.78013 7.07591 8.35102 7.42802 8.70313L10.7249 12L7.42802 15.2969C7.07591 15.649 7.07591 16.2199 7.42802 16.572C7.78013 16.9241 8.35102 16.9241 8.70313 16.572L12 13.2751L15.2969 16.572C15.649 16.9241 16.2199 16.9241 16.572 16.572C16.9241 16.2199 16.9241 15.649 16.572 15.2969L13.2751 12L16.572 8.70313C16.9241 8.35102 16.9241 7.78013 16.572 7.42802C16.2199 7.07591 15.649 7.07591 15.2969 7.42802L12 10.7249L8.70313 7.42802Z" fill="#222222"/>
<path fill-rule="evenodd" clip-rule="evenodd" d="M12 2C6.47715 2 2 6.47715 2 12C2 17.5228 6.47715 22 12 22C17.5228 22 22 17.5228 22 12C22 6.47715 17.5228 2 12 2ZM3.80328 12C3.80328 7.47308 7.47308 3.80328 12 3.80328C16.5269 3.80328 20.1967 7.47308 20.1967 12C20.1967 16.5269 16.5269 20.1967 12 20.1967C7.47308 20.1967 3.80328 16.5269 3.80328 12Z" fill="#222222"/>
</svg>
