<svg width="24" height="24" viewBox="0 0 24 24" fill="none" xmlns="http://www.w3.org/2000/svg">
<path fill-rule="evenodd" clip-rule="evenodd" d="M5.96252 3.38933C6.29981 3.14891 6.76815 3.22743 7.00857 3.56473L9.23869 6.69339L12.0518 5.20229C13.1427 4.62405 14.5 5.35472 14.5 6.5202V14.0745L18.9111 20.2629C19.1515 20.6002 19.073 21.0686 18.7357 21.309C18.3984 21.5494 17.9301 21.4709 17.6896 21.1336L5.78712 4.43539C5.54669 4.09809 5.62522 3.62976 5.96252 3.38933ZM12.8636 11.7789V6.5202L10.1431 7.96223L12.8636 11.7789Z" fill="#222222"/>
<path d="M18.0347 5.13825C18.4063 4.89388 18.9159 4.98216 19.173 5.33543C20.0607 6.55523 21.1053 8.65285 21.4116 11.0581C21.7204 13.4826 21.28 16.2565 19.1297 18.719C18.8411 19.0495 18.3252 19.0951 17.9775 18.8207C17.6298 18.5464 17.5819 18.056 17.8706 17.7255C19.6718 15.6628 20.0546 13.3459 19.7871 11.2451C19.5172 9.12513 18.5861 7.26317 17.8272 6.22037C17.5702 5.8671 17.663 5.38262 18.0347 5.13825Z" fill="#222222"/>
<path d="M15.8528 8.24934C16.2244 8.00497 16.7341 8.09325 16.9912 8.44652C17.4672 9.10067 18.0179 10.2084 18.1802 11.4824C18.3448 12.7755 18.1103 14.2767 16.9478 15.6079C16.6592 15.9385 16.1434 15.984 15.7957 15.7096C15.448 15.4353 15.4001 14.9449 15.6887 14.6144C16.502 13.683 16.6791 12.6388 16.5556 11.6693C16.4297 10.6807 15.9926 9.80861 15.6454 9.33146C15.3883 8.97819 15.4812 8.49371 15.8528 8.24934Z" fill="#222222"/>
<path d="M6.86364 7.95232L7.17598 7.78676L8.08041 9.0556L7.2982 9.47022H4.13636V14.5299H7.2982L12.8636 17.4799V15.766L14.4213 17.9513C14.1167 18.8278 12.9865 19.2933 12.0518 18.7978L6.86364 16.0478H4.13636C3.23263 16.0478 2.5 15.3682 2.5 14.5299V9.47022C2.5 8.63191 3.23263 7.95232 4.13636 7.95232H6.86364Z" fill="#222222"/>
</svg>
