<svg width="24" height="24" viewBox="0 0 24 24" fill="none" xmlns="http://www.w3.org/2000/svg">
<path fill-rule="evenodd" clip-rule="evenodd" d="M11.8014 2.85001C9.848 2.85001 8.44277 3.70518 7.58102 4.83691C6.78318 5.88471 6.44593 7.17219 6.52889 8.25001L5.77775 8.25001C4.71132 8.25001 3.84998 9.12481 3.84998 10.2V19.2C3.84998 20.2752 4.71132 21.15 5.77775 21.15H18.2222C19.2886 21.15 20.15 20.2752 20.15 19.2V10.2C20.15 9.12481 19.2886 8.25001 18.2222 8.25001H8.13684C8.08992 7.51506 8.34201 6.47288 8.91062 5.72611C9.49323 4.96098 10.4213 4.38048 11.8014 4.38048C13.0116 4.38048 14.0725 4.91284 14.5135 5.49426C14.7741 5.83788 15.2783 5.91635 15.6429 5.68082C16.0141 5.44097 16.1113 4.95869 15.8448 4.60733C15.0413 3.54795 13.4353 2.85001 11.8014 2.85001ZM10.0722 13.8C10.0722 12.7248 10.9335 11.85 12 11.85C13.0664 11.85 13.9278 12.7248 13.9278 13.8C13.9278 14.5811 13.4736 15.2557 12.8166 15.5669V17.4C12.8166 17.8539 12.4528 18.225 12 18.225C11.5472 18.225 11.1833 17.8539 11.1833 17.4V15.5669C10.5264 15.2557 10.0722 14.5811 10.0722 13.8Z" fill="#222222"/>
</svg>
