<svg width="24" height="24" viewBox="0 0 24 24" fill="none" xmlns="http://www.w3.org/2000/svg">
<path fill-rule="evenodd" clip-rule="evenodd" d="M3.97854 4C3.45161 4 3 4.41102 3 4.94766C3 5.4843 3.45161 5.89532 3.97854 5.89532H19.7447C20.2717 5.89532 20.7233 5.4843 20.7233 4.94766C20.7233 4.41102 20.2717 4 19.7447 4H3.97854ZM3.97854 11.0523C3.45161 11.0523 3 11.4634 3 12C3 12.5366 3.45161 12.9477 3.97854 12.9477H17.6628L15.9403 14.6911C15.5522 15.084 15.556 15.7172 15.9489 16.1053C16.3418 16.4935 16.9749 16.4896 17.3631 16.0968L20.7161 12.7028C21.101 12.3133 21.101 11.6867 20.7161 11.2972L17.3631 7.90325C16.9749 7.51037 16.3418 7.50653 15.9489 7.89469C15.556 8.28284 15.5522 8.91599 15.9403 9.30887L17.6628 11.0523H3.97854ZM3 19.0523C3 18.5157 3.45161 18.1047 3.97854 18.1047H19.7447C20.2717 18.1047 20.7233 18.5157 20.7233 19.0523C20.7233 19.589 20.2717 20 19.7447 20H3.97854C3.45161 20 3 19.589 3 19.0523Z" fill="#222222"/>
</svg>
