<svg width="24" height="24" viewBox="0 0 24 24" fill="none" xmlns="http://www.w3.org/2000/svg">
<path fill-rule="evenodd" clip-rule="evenodd" d="M7.2982 9.47017H4.13636V14.5298H7.2982L12.8636 17.4799V6.52014L7.2982 9.47017ZM6.86364 7.95226L12.0518 5.20224C13.1427 4.624 14.5 5.35467 14.5 6.52014V17.4799C14.5 18.6453 13.1427 19.376 12.0518 18.7978L6.86364 16.0477H4.13636C3.23263 16.0477 2.5 15.3682 2.5 14.5298V9.47017C2.5 8.63185 3.23263 7.95226 4.13636 7.95226H6.86364Z" fill="#222222"/>
<path fill-rule="evenodd" clip-rule="evenodd" d="M15.8528 8.24929C16.2244 8.00492 16.7341 8.0932 16.9912 8.44646C17.4672 9.10062 18.0179 10.2083 18.1802 11.4823C18.3448 12.7754 18.1103 14.2767 16.9478 15.6079C16.6592 15.9384 16.1434 15.9839 15.7957 15.7096C15.448 15.4352 15.4001 14.9449 15.6887 14.6143C16.502 13.6829 16.6791 12.6387 16.5556 11.6693C16.4297 10.6806 15.9926 9.80856 15.6454 9.3314C15.3883 8.97814 15.4812 8.49365 15.8528 8.24929Z" fill="#222222"/>
<path fill-rule="evenodd" clip-rule="evenodd" d="M18.0347 5.13819C18.4063 4.89382 18.9159 4.98211 19.173 5.33537C20.0607 6.55518 21.1053 8.65279 21.4116 11.0581C21.7204 13.4825 21.28 16.2565 19.1297 18.719C18.8411 19.0495 18.3252 19.095 17.9775 18.8207C17.6298 18.5463 17.5819 18.056 17.8706 17.7254C19.6718 15.6627 20.0546 13.3458 19.7871 11.245C19.5172 9.12508 18.5861 7.26312 17.8272 6.22031C17.5702 5.86704 17.663 5.38256 18.0347 5.13819Z" fill="#222222"/>
</svg>
