<svg width="24" height="24" viewBox="0 0 24 24" fill="none" xmlns="http://www.w3.org/2000/svg">
<g clip-path="url(#clip0_277_322)">
<path d="M3.75 7C3.75 5.20507 5.20507 3.75 7 3.75H17C18.7949 3.75 20.25 5.20507 20.25 7V17C20.25 18.7949 18.7949 20.25 17 20.25H7C5.20507 20.25 3.75 18.7949 3.75 17V7Z" stroke="#1F1F1F" stroke-width="1.5"/>
<line x1="3" y1="8.75" x2="21" y2="8.75" stroke="#1F1F1F" stroke-width="1.5"/>
<line x1="15.9722" y1="5.25" x2="15.9722" y2="2.75" stroke="#1F1F1F" stroke-width="1.5" stroke-linecap="round"/>
<line x1="8.25" y1="5.25" x2="8.25" y2="2.75" stroke="#1F1F1F" stroke-width="1.5" stroke-linecap="round"/>
<circle cx="8" cy="13.0002" r="1" fill="#1F1F1F"/>
<ellipse cx="12" cy="13" rx="1" ry="0.999999" fill="#1F1F1F"/>
<circle cx="16" cy="13" r="1" fill="#1F1F1F"/>
<ellipse cx="8" cy="16.5" rx="1" ry="0.999999" fill="#1F1F1F"/>
<ellipse cx="12" cy="16.5" rx="1" ry="0.999998" fill="#1F1F1F"/>
<ellipse cx="16" cy="16.5" rx="1" ry="0.999999" fill="#1F1F1F"/>
</g>
<defs>
<clipPath id="clip0_277_322">
<rect width="24" height="24" fill="white"/>
</clipPath>
</defs>
</svg>
