<svg width="20" height="20" viewBox="0 0 20 20" fill="none" xmlns="http://www.w3.org/2000/svg">
<path fill-rule="evenodd" clip-rule="evenodd" d="M10 19C14.9706 19 19 14.9706 19 10C19 5.02944 14.9706 1 10 1C5.02944 1 1 5.02944 1 10C1 14.9706 5.02944 19 10 19ZM14.0773 5.9227C14.3409 6.18631 14.3409 6.61369 14.0773 6.8773L10.9546 10L14.0773 13.1227C14.3409 13.3863 14.3409 13.8137 14.0773 14.0773C13.8137 14.3409 13.3863 14.3409 13.1227 14.0773L10 10.9546L6.8773 14.0773C6.61369 14.3409 6.18631 14.3409 5.9227 14.0773C5.6591 13.8137 5.6591 13.3863 5.9227 13.1227L9.04541 10L5.9227 6.8773C5.6591 6.61369 5.6591 6.18631 5.9227 5.9227C6.18631 5.6591 6.61369 5.6591 6.8773 5.9227L10 9.04541L13.1227 5.9227C13.3863 5.6591 13.8137 5.6591 14.0773 5.9227Z" fill="#BCBCBC"/>
</svg>
