<svg width="32" height="32" viewBox="0 0 32 32" fill="none" xmlns="http://www.w3.org/2000/svg">
<path d="M6 8C6 5.23858 8.23858 3 11 3H21C23.7614 3 26 5.23858 26 8V24C26 26.7614 23.7614 29 21 29H11C8.23858 29 6 26.7614 6 24V8Z" stroke="#1F1F1F" stroke-width="2"/>
<path d="M8 22.3333H10.1723L10.9192 20.0695H14.4141L15.161 22.3333H17.3333L13.8864 13H11.4537L8 22.3333ZM12.6461 14.811H12.6872L13.9344 18.6078H11.3989L12.6461 14.811Z" fill="#1F1F1F"/>
<path d="M19.758 22.552C20.696 22.552 21.27 22.244 21.62 21.838H21.704L21.83 22.426H23.16V17.246C23.16 15.748 22.194 15.104 20.528 15.104C19.59 15.104 18.82 15.23 18.148 15.496V16.602C18.582 16.504 19.198 16.406 19.898 16.406C21.116 16.406 21.55 16.63 21.55 17.61V18.156L19.856 18.352C18.428 18.562 17.546 19.178 17.546 20.508C17.546 21.894 18.456 22.552 19.758 22.552ZM20.248 21.418C19.59 21.418 19.128 21.11 19.128 20.424C19.128 19.696 19.506 19.402 20.22 19.346L21.55 19.206V20.984C21.284 21.236 20.766 21.418 20.248 21.418Z" fill="#1F1F1F"/>
<path d="M25.7 9.5H10.7C8.7 9.5 6.7 9.5 6.2 6.5" stroke="#1F1F1F" stroke-width="2"/>
</svg>
