<svg width="24" height="24" viewBox="0 0 24 24" fill="none" xmlns="http://www.w3.org/2000/svg">
<circle cx="12" cy="12" r="3" fill="#1F1F1F"/>
<path fill-rule="evenodd" clip-rule="evenodd" d="M22.0497 12.4719C22.2166 12.1768 22.2166 11.8233 22.0497 11.5282C21.1609 9.95683 17.8906 5 12.0006 5C6.1108 5 2.83956 9.95653 1.95041 11.528C1.78342 11.8232 1.78342 12.1768 1.95041 12.472C2.83956 14.0435 6.1108 19 12.0006 19C17.8906 19 21.1609 14.0432 22.0497 12.4719ZM12 17C14.7614 17 17 14.7614 17 12C17 9.23858 14.7614 7 12 7C9.23855 7 6.99997 9.23858 6.99997 12C6.99997 14.7614 9.23855 17 12 17Z" fill="#1F1F1F"/>
</svg>
