<svg width="24" height="24" viewBox="0 0 24 24" fill="none" xmlns="http://www.w3.org/2000/svg">
<path fill-rule="evenodd" clip-rule="evenodd" d="M16.6834 6.15593C15.3638 5.46528 13.8052 5 12.0006 5C6.11083 5 2.83959 9.95653 1.95044 11.528C1.78345 11.8232 1.78345 12.1768 1.95044 12.472C2.46137 13.375 3.75888 15.3958 5.88783 16.9515L7.93182 14.9075C7.34525 14.0883 7 13.0845 7 12C7 9.23858 9.23858 7 12 7C13.0845 7 14.0883 7.34525 14.9075 7.93182L16.6834 6.15593ZM13.4605 9.37888C13.0283 9.13754 12.5302 9 12 9C10.3431 9 9 10.3431 9 12C9 12.5302 9.13754 13.0283 9.37888 13.4605L13.4605 9.37888ZM10.4138 14.5469L14.5469 10.4138C14.8341 10.874 15 11.4176 15 12C15 13.6569 13.6569 15 12 15C11.4176 15 10.874 14.8341 10.4138 14.5469ZM8.9774 15.9833C9.8169 16.6213 10.8642 17 12 17C14.7614 17 17 14.7614 17 12C17 10.8642 16.6213 9.8169 15.9833 8.9774L17.9964 6.96428C20.1945 8.53063 21.5297 10.6088 22.0497 11.5282C22.2166 11.8233 22.2166 12.1768 22.0497 12.4719C21.1609 14.0432 17.8906 19 12.0006 19C10.1359 19 8.53369 18.5032 7.18642 17.7743L8.9774 15.9833Z" fill="#1F1F1F"/>
<path d="M21.25 4.75L4.75 21.25" stroke="#1F1F1F" stroke-width="1.5" stroke-linecap="round"/>
</svg>
