<svg width="24" height="24" viewBox="0 0 24 24" fill="none" xmlns="http://www.w3.org/2000/svg">
<path d="M3.75 4C3.33579 4 3 4.33579 3 4.75C3 5.16421 3.33579 5.5 3.75 5.5V4ZM20.25 5.5C20.6642 5.5 21 5.16421 21 4.75C21 4.33579 20.6642 4 20.25 4V5.5ZM3.75 5.5L20.25 5.5V4L3.75 4V5.5Z" fill="#1F1F1F"/>
<path d="M3.75 11.25C3.33579 11.25 3 11.5858 3 12C3 12.4142 3.33579 12.75 3.75 12.75V11.25ZM20.25 12.75C20.6642 12.75 21 12.4142 21 12C21 11.5858 20.6642 11.25 20.25 11.25V12.75ZM3.75 12.75L20.25 12.75V11.25L3.75 11.25V12.75Z" fill="#1F1F1F"/>
<path d="M3.75 18.5C3.33579 18.5 3 18.8358 3 19.25C3 19.6642 3.33579 20 3.75 20V18.5ZM20.25 20C20.6642 20 21 19.6642 21 19.25C21 18.8358 20.6642 18.5 20.25 18.5V20ZM3.75 20L20.25 20V18.5L3.75 18.5V20Z" fill="#1F1F1F"/>
</svg>
