<svg width="32" height="32" viewBox="0 0 32 32" fill="none" xmlns="http://www.w3.org/2000/svg">
<path fill-rule="evenodd" clip-rule="evenodd" d="M26.8 14.6C27.1314 14.1582 27.0418 13.5314 26.6 13.2C26.1582 12.8686 25.5314 12.9582 25.2 13.4L21.5 18.3333L17.8 13.4C17.4686 12.9582 16.8418 12.8686 16.4 13.2C15.9582 13.5314 15.8686 14.1582 16.2 14.6L20.25 20L16.2 25.4C15.8686 25.8418 15.9582 26.4686 16.4 26.8C16.8418 27.1314 17.4686 27.0418 17.8 26.6L21.5 21.6667L25.2 26.6C25.5314 27.0418 26.1582 27.1314 26.6 26.8C27.0418 26.4686 27.1314 25.8418 26.8 25.4L22.75 20L26.8 14.6Z" fill="#1F1F1F"/>
<path d="M29 6H12.1247C11.1781 6 10.3611 6.6637 10.1672 7.59027L6 27.5L1 19" stroke="#1F1F1F" stroke-width="2" stroke-linecap="round" stroke-linejoin="round"/>
</svg>
