<svg width="32" height="32" viewBox="0 0 32 32" fill="none" xmlns="http://www.w3.org/2000/svg">
<rect x="3" y="3" width="21" height="21" rx="10.5" stroke="#1F1F1F" stroke-width="2"/>
<path d="M9 9C8.44772 9 8 9.44772 8 10C8 10.5523 8.44772 11 9 11V9ZM17 11C17.5523 11 18 10.5523 18 10C18 9.44772 17.5523 9 17 9V11ZM9 11L17 11V9L9 9V11Z" fill="#1F1F1F"/>
<path d="M9 13C8.44772 13 8 13.4477 8 14C8 14.5523 8.44772 15 9 15V13ZM19 15C19.5523 15 20 14.5523 20 14C20 13.4477 19.5523 13 19 13V15ZM9 15L19 15V13L9 13V15Z" fill="#1F1F1F"/>
<path d="M9 17C8.44772 17 8 17.4477 8 18C8 18.5523 8.44772 19 9 19V17ZM16 19C16.5523 19 17 18.5523 17 18C17 17.4477 16.5523 17 16 17V19ZM9 19H16V17H9V19Z" fill="#1F1F1F"/>
<path d="M27.7929 29.2071C28.1834 29.5976 28.8166 29.5976 29.2071 29.2071C29.5976 28.8166 29.5976 28.1834 29.2071 27.7929L27.7929 29.2071ZM20.2929 21.7071L27.7929 29.2071L29.2071 27.7929L21.7071 20.2929L20.2929 21.7071Z" fill="#1F1F1F"/>
</svg>
