<svg width="32" height="32" viewBox="0 0 32 32" fill="none" xmlns="http://www.w3.org/2000/svg">
<rect x="4.5" y="3" width="10" height="10" rx="5" stroke="#1F1F1F" stroke-width="2"/>
<path d="M11.5 13L12.3129 26.0058C12.4143 27.6284 11.1257 29 9.5 29V29C7.87431 29 6.58573 27.6284 6.68713 26.0058L7.5 13" stroke="#1F1F1F" stroke-width="2"/>
<path d="M24.75 13L25.5629 26.0058C25.6643 27.6284 24.3757 29 22.75 29V29C21.1243 29 19.8357 27.6284 19.9371 26.0058L20.75 13" stroke="#1F1F1F" stroke-width="2"/>
<path d="M19 3.5C19 2.94772 18.5523 2.5 18 2.5C17.4477 2.5 17 2.94772 17 3.5H19ZM28.5 3.5C28.5 2.94772 28.0523 2.5 27.5 2.5C26.9477 2.5 26.5 2.94772 26.5 3.5L28.5 3.5ZM19 8.25V3.5H17V8.25H19ZM26.5 3.5V8.25H28.5V3.5L26.5 3.5ZM22.75 12C20.6789 12 19 10.3211 19 8.25H17C17 11.4256 19.5744 14 22.75 14V12ZM22.75 14C25.9256 14 28.5 11.4256 28.5 8.25H26.5C26.5 10.3211 24.8211 12 22.75 12V14Z" fill="#1F1F1F"/>
<path d="M21.75 9C21.75 9.55228 22.1977 10 22.75 10C23.3023 10 23.75 9.55228 23.75 9H21.75ZM23.75 3.5C23.75 2.94772 23.3023 2.5 22.75 2.5C22.1977 2.5 21.75 2.94772 21.75 3.5H23.75ZM23.75 9V3.5H21.75V9H23.75Z" fill="#1F1F1F"/>
</svg>
