<svg width="32" height="32" viewBox="0 0 32 32" fill="none" xmlns="http://www.w3.org/2000/svg">
<path d="M15.657 11.695C15.7973 11.4107 16.2027 11.4107 16.343 11.695L17.3805 13.7971C17.4362 13.91 17.5439 13.9883 17.6685 14.0064L19.9883 14.3435C20.302 14.3891 20.4273 14.7746 20.2003 14.9959L18.5216 16.6322C18.4315 16.7201 18.3904 16.8467 18.4116 16.9707L18.8079 19.2812C18.8615 19.5937 18.5335 19.832 18.2529 19.6844L16.178 18.5936C16.0666 18.535 15.9334 18.535 15.822 18.5936L13.7471 19.6844C13.4665 19.832 13.1385 19.5937 13.1921 19.2812L13.5884 16.9707C13.6096 16.8467 13.5685 16.7201 13.4784 16.6322L11.7997 14.9959C11.5727 14.7746 11.698 14.3891 12.0117 14.3435L14.3315 14.0064C14.4561 13.9883 14.5638 13.91 14.6195 13.7971L15.657 11.695Z" fill="#1F1F1F"/>
<path d="M25.7892 16.0018C25.7892 17.8654 27.2528 19.2529 28.9997 19.6324L28.9985 23.001C28.9979 24.6575 27.655 26 25.9985 26H6.00074C4.34409 26 3.00103 24.6572 3.00074 23.0005L3.00016 19.6323C4.74614 19.2527 6.20938 17.8651 6.20938 16.0018C6.20938 14.1085 4.71582 12.8219 3 12.4709V9C3 7.34315 4.34315 6 6 6H25.9985C27.655 6 28.9979 7.34251 28.9985 8.99896L28.9997 12.3712C27.2529 12.7504 25.7892 14.1371 25.7892 16.0018Z" stroke="#1F1F1F" stroke-width="2" stroke-linecap="round" stroke-linejoin="round"/>
</svg>
