<svg width="32" height="32" viewBox="0 0 32 32" fill="none" xmlns="http://www.w3.org/2000/svg">
<path fill-rule="evenodd" clip-rule="evenodd" d="M21 5V7.71099H19V5H21ZM21 9.19326V12.7429H19V9.19326H21ZM21 14.2252V17.7748H19V14.2252H21ZM21 19.2571V22.8067H19V19.2571H21ZM21 24.289V27H19V24.289H21Z" fill="#1F1F1F"/>
<path d="M25.7892 16.0018C25.7892 17.8654 27.2528 19.2529 28.9997 19.6324L28.9985 23.001C28.9979 24.6575 27.655 26 25.9985 26H6.00074C4.34409 26 3.00103 24.6572 3.00074 23.0005L3.00016 19.6323C4.74614 19.2527 6.20938 17.8651 6.20938 16.0018C6.20938 14.1085 4.71582 12.8219 3 12.4709V9C3 7.34315 4.34315 6 6 6H25.9985C27.655 6 28.9979 7.34251 28.9985 8.99896L28.9997 12.3712C27.2529 12.7504 25.7892 14.1371 25.7892 16.0018Z" stroke="#1F1F1F" stroke-width="2" stroke-linecap="round" stroke-linejoin="round"/>
</svg>
