<svg width="24" height="24" viewBox="0 0 24 24" fill="none" xmlns="http://www.w3.org/2000/svg">
<path d="M8.33138 3.75H15.6686C17.1442 3.75 18.4346 4.74404 18.8111 6.17075L20.1424 11.216C20.2138 11.4866 20.25 11.7653 20.25 12.0452V17C20.25 18.7949 18.7949 20.25 17 20.25H7C5.20507 20.25 3.75 18.7949 3.75 17V12.0452C3.75 11.7653 3.78616 11.4866 3.85757 11.216L5.18895 6.17075C5.56544 4.74404 6.85582 3.75 8.33138 3.75Z" stroke="#1F1F1F" stroke-width="1.5" stroke-linecap="round"/>
<path d="M4 12H9L9.72223 12.8426C10.9195 14.2394 13.0805 14.2394 14.2778 12.8426L15 12H20" stroke="#1F1F1F" stroke-width="1.5" stroke-linejoin="round"/>
</svg>
